<svg width="179" height="142" viewBox="0 0 179 142" fill="none" xmlns="http://www.w3.org/2000/svg">
<g clip-path="url(#clip0_649_511)">
<path d="M5.89851 117.479H7.62873V127.02H5.89851V122.762H1.73023V127.02H0V117.479H1.73023V121.264H5.89851V117.479Z" fill="white"/>
<path d="M18.7179 122.21C18.7179 122.998 18.5606 123.708 18.3246 124.339C18.0887 124.969 17.7741 125.521 17.3022 125.916C16.909 126.31 16.4371 126.625 15.808 126.862C15.2574 127.098 14.6283 127.177 13.9991 127.177C13.3699 127.177 12.7407 127.098 12.1902 126.862C11.6397 126.625 11.1678 126.31 10.6959 125.916C10.3027 125.521 9.90945 124.969 9.67351 124.339C9.43757 123.708 9.28027 122.998 9.28027 122.21C9.28027 121.421 9.43757 120.712 9.67351 120.081C9.90945 119.45 10.224 118.977 10.6959 118.504C11.0891 118.11 11.6397 117.795 12.1902 117.558C12.7407 117.322 13.3699 117.243 13.9991 117.243C14.6283 117.243 15.1788 117.322 15.808 117.558C16.3585 117.795 16.8304 118.11 17.3022 118.504C17.6955 118.898 18.0887 119.45 18.3246 120.081C18.5606 120.712 18.7179 121.421 18.7179 122.21ZM11.3251 122.21C11.3251 122.762 11.4037 123.235 11.4824 123.629C11.6397 124.023 11.797 124.418 12.0329 124.733C12.2688 125.048 12.5834 125.285 12.898 125.443C13.2126 125.6 13.6058 125.679 14.0777 125.679C14.471 125.679 14.8642 125.6 15.2574 125.443C15.572 125.285 15.8866 125.048 16.1225 124.733C16.3585 124.418 16.5158 124.102 16.6731 123.629C16.8304 123.235 16.8304 122.762 16.8304 122.21C16.8304 121.658 16.7517 121.185 16.6731 120.791C16.5158 120.396 16.3585 120.002 16.1225 119.687C15.8866 119.371 15.572 119.135 15.2574 118.977C14.9428 118.82 14.5496 118.741 14.0777 118.741C13.6058 118.741 13.2126 118.82 12.898 118.977C12.5834 119.135 12.2688 119.371 12.0329 119.687C11.797 120.002 11.6397 120.318 11.4824 120.791C11.3251 121.264 11.3251 121.737 11.3251 122.21Z" fill="white"/>
<path d="M26.8971 117.479V118.977H23.9872V127.02H22.257V118.977H19.347V117.479H26.8971Z" fill="white"/>
<path d="M28.2341 127.02V117.479H34.3686V118.977H29.9644V121.343H33.8967V122.762H29.9644V125.521H34.6832V127.02H28.2341Z" fill="white"/>
<path d="M42.312 125.521V127.02H36.3348V117.479H38.0651V125.521H42.312Z" fill="white"/>
<path d="M53.4798 117.479V118.977H50.5699V127.02H48.761V118.977H45.8511V117.479H53.4798Z" fill="white"/>
<path d="M60.6367 117.479H62.3669V127.02H60.6367V122.762H56.4684V127.02H54.7382V117.479H56.4684V121.264H60.6367V117.479Z" fill="white"/>
<path d="M64.6476 127.02V117.479H70.782V118.977H66.3778V121.343H70.3102V122.762H66.3778V125.521H71.0966V127.02H64.6476Z" fill="white"/>
<path d="M80.3769 118.82C79.4332 118.82 78.6467 119.135 78.0962 119.766C77.5456 120.397 77.3097 121.185 77.3097 122.289C77.3097 122.841 77.3883 123.235 77.467 123.708C77.6243 124.102 77.7816 124.496 78.0175 124.812C78.2535 125.127 78.568 125.364 78.9613 125.521C79.3545 125.679 79.7477 125.758 80.2196 125.758C80.5342 125.758 80.7702 125.758 81.0061 125.758C81.242 125.758 81.3993 125.679 81.5566 125.679V122.289H83.2869V126.862C83.0509 126.941 82.6577 127.019 82.1072 127.177C81.5566 127.256 80.8488 127.335 80.141 127.335C79.4332 127.335 78.804 127.256 78.2535 127.02C77.7029 126.783 77.231 126.468 76.8378 126.073C76.4446 125.679 76.13 125.127 75.8941 124.496C75.6581 123.866 75.5795 123.156 75.5795 122.368C75.5795 121.579 75.7368 120.87 75.9727 120.239C76.2086 119.608 76.5232 119.135 76.9951 118.662C77.3883 118.268 77.9389 117.873 78.4894 117.716C79.0399 117.479 79.6691 117.4 80.2983 117.4C80.7702 117.4 81.1634 117.4 81.478 117.479C81.7926 117.558 82.1071 117.637 82.3431 117.716C82.579 117.795 82.815 117.873 82.9723 117.952C83.1296 118.031 83.2082 118.11 83.2869 118.11L82.7363 119.529C82.5004 119.372 82.1072 119.214 81.7139 119.135C81.242 118.82 80.7702 118.82 80.3769 118.82Z" fill="white"/>
<path d="M87.927 117.4C89.264 117.4 90.3651 117.637 91.0729 118.189C91.7807 118.662 92.1739 119.45 92.1739 120.475C92.1739 121.737 91.5448 122.683 90.2864 123.077C90.4437 123.314 90.6796 123.55 90.9156 123.866C91.1515 124.181 91.3875 124.496 91.6234 124.812C91.8593 125.127 92.0953 125.521 92.2526 125.916C92.4885 126.31 92.6458 126.625 92.8031 127.02H90.8369C90.6796 126.704 90.4437 126.389 90.2864 125.995C90.0505 125.679 89.8932 125.364 89.6572 125.048C89.4213 124.733 89.264 124.418 89.0281 124.181C88.7921 123.866 88.6348 123.629 88.4775 123.393C88.3202 123.393 88.2416 123.393 88.1629 123.393C88.0843 123.393 88.0057 123.393 87.927 123.393H87.0619V127.02H85.3317V117.637C85.7249 117.558 86.1968 117.479 86.6687 117.479C87.0619 117.4 87.5338 117.4 87.927 117.4ZM88.0057 118.898C87.6124 118.898 87.2978 118.898 86.9832 118.977V122.052H87.7697C88.1629 122.052 88.5562 122.052 88.8708 121.973C89.1854 121.895 89.4213 121.816 89.6572 121.737C89.8932 121.579 90.0505 121.421 90.1291 121.264C90.2078 121.027 90.2864 120.791 90.2864 120.475C90.2864 120.16 90.2078 119.923 90.1291 119.766C90.0505 119.529 89.8932 119.372 89.6572 119.293C89.4213 119.135 89.1854 119.056 88.9494 119.056C88.6348 118.898 88.3202 118.898 88.0057 118.898Z" fill="white"/>
<path d="M100.746 127.02C100.589 126.625 100.51 126.31 100.353 125.916C100.196 125.521 100.117 125.206 99.96 124.812H95.949C95.7917 125.206 95.713 125.6 95.5557 125.916C95.3985 126.31 95.3198 126.625 95.1625 127.02H93.3536C93.7469 125.995 94.0615 125.048 94.376 124.181C94.6906 123.314 95.0052 122.525 95.3198 121.737C95.6344 120.948 95.949 120.239 96.2636 119.529C96.5782 118.82 96.8927 118.11 97.2073 117.479H98.8589C99.1735 118.189 99.4881 118.82 99.8027 119.529C100.117 120.239 100.432 120.948 100.746 121.737C101.061 122.525 101.376 123.314 101.69 124.181C102.005 125.048 102.319 125.995 102.713 127.02H100.746ZM97.9152 119.293C97.6792 119.766 97.4433 120.397 97.2073 121.106C96.9714 121.816 96.6568 122.525 96.3422 123.393H99.4881C99.1735 122.604 98.9376 121.816 98.623 121.106C98.387 120.397 98.1511 119.766 97.9152 119.293Z" fill="white"/>
<path d="M110.184 127.02C109.87 126.468 109.555 125.916 109.162 125.364C108.768 124.733 108.375 124.181 107.982 123.55C107.589 122.92 107.117 122.368 106.724 121.737C106.33 121.185 105.859 120.633 105.544 120.16V127.02H103.814V117.479H105.229C105.623 117.873 106.016 118.347 106.409 118.82C106.802 119.372 107.274 119.923 107.667 120.475C108.061 121.027 108.533 121.579 108.926 122.21C109.319 122.762 109.712 123.314 110.027 123.787V117.479H111.757V127.02H110.184Z" fill="white"/>
<path d="M122.06 122.21C122.06 122.998 121.902 123.787 121.667 124.339C121.431 124.969 121.037 125.443 120.565 125.837C120.094 126.231 119.543 126.546 118.835 126.783C118.206 127.019 117.42 127.098 116.633 127.098C116.24 127.098 115.847 127.098 115.296 127.019C114.824 127.019 114.352 126.941 113.88 126.783V117.479C114.352 117.4 114.824 117.322 115.296 117.322C115.768 117.322 116.24 117.243 116.633 117.243C117.42 117.243 118.127 117.322 118.835 117.558C119.464 117.716 120.094 118.031 120.565 118.425C121.037 118.82 121.431 119.293 121.667 119.923C121.902 120.633 122.06 121.421 122.06 122.21ZM115.689 125.6C115.768 125.6 115.925 125.6 116.083 125.6C116.24 125.6 116.476 125.6 116.79 125.6C117.97 125.6 118.835 125.285 119.386 124.733C119.936 124.102 120.251 123.314 120.251 122.21C120.251 121.106 119.936 120.318 119.386 119.687C118.835 119.135 117.97 118.82 116.79 118.82C116.24 118.82 115.925 118.82 115.689 118.898V125.6Z" fill="white"/>
<path d="M133.464 127.02C133.306 126.625 133.228 126.31 133.07 125.916C132.913 125.521 132.834 125.206 132.677 124.812H128.666C128.509 125.206 128.43 125.6 128.273 125.916C128.116 126.31 128.037 126.625 127.88 127.02H126.071C126.464 125.995 126.779 125.048 127.093 124.181C127.408 123.314 127.722 122.525 128.037 121.737C128.352 120.948 128.666 120.239 128.981 119.529C129.295 118.82 129.61 118.11 129.924 117.479H131.576C131.891 118.189 132.205 118.82 132.52 119.529C132.834 120.239 133.149 120.948 133.464 121.737C133.778 122.525 134.093 123.314 134.407 124.181C134.722 125.048 135.037 125.995 135.43 127.02H133.464ZM130.632 119.293C130.396 119.766 130.16 120.397 129.924 121.106C129.689 121.816 129.374 122.525 129.059 123.393H132.205C131.891 122.604 131.655 121.816 131.34 121.106C131.104 120.397 130.868 119.766 130.632 119.293Z" fill="white"/>
<path d="M142.508 125.521V127.02H136.531V117.479H138.261V125.521H142.508Z" fill="white"/>
<path d="M149.901 127.02C149.743 126.625 149.665 126.31 149.508 125.916C149.35 125.6 149.272 125.206 149.114 124.812H145.261C145.103 125.206 145.025 125.521 144.867 125.916C144.71 126.31 144.631 126.625 144.474 126.941H142.744C143.058 125.995 143.373 125.048 143.688 124.26C144.002 123.393 144.317 122.683 144.553 121.895C144.867 121.185 145.103 120.475 145.418 119.766C145.732 119.135 145.968 118.425 146.283 117.795H147.856C148.171 118.425 148.485 119.135 148.721 119.766C149.036 120.397 149.272 121.106 149.586 121.895C149.901 122.604 150.215 123.393 150.53 124.26C150.845 125.127 151.159 125.995 151.474 126.941H149.901V127.02ZM147.227 119.608C146.991 120.081 146.755 120.633 146.519 121.343C146.283 121.973 145.968 122.762 145.732 123.55H148.721C148.406 122.762 148.171 122.052 147.935 121.343C147.62 120.633 147.384 120.081 147.227 119.608Z" fill="white"/>
<path d="M154.934 121.895C155.327 121.264 155.721 120.554 156.114 119.924C156.507 119.214 156.822 118.583 157.136 117.874H158.945C158.473 118.82 157.923 119.766 157.372 120.633C156.822 121.579 156.271 122.447 155.642 123.393V127.02H153.99V123.472C153.361 122.525 152.811 121.579 152.26 120.633C151.71 119.687 151.238 118.741 150.687 117.874H152.653C152.968 118.583 153.282 119.214 153.676 119.924C154.148 120.554 154.541 121.264 154.934 121.895Z" fill="white"/>
<path d="M166.259 127.02C165.945 126.546 165.63 125.995 165.237 125.364C164.844 124.812 164.45 124.181 164.057 123.629C163.664 123.077 163.271 122.447 162.877 121.895C162.484 121.343 162.091 120.87 161.698 120.397V126.941H160.046V117.795H161.383C161.698 118.189 162.091 118.583 162.484 119.135C162.877 119.608 163.271 120.16 163.743 120.712C164.136 121.264 164.529 121.816 164.922 122.368C165.315 122.92 165.63 123.393 165.945 123.945V117.874H167.596V127.02H166.259Z" fill="white"/>
<path d="M175.933 127.02C175.775 126.625 175.697 126.31 175.539 125.916C175.382 125.6 175.304 125.206 175.146 124.812H171.293C171.135 125.206 171.057 125.521 170.899 125.916C170.742 126.31 170.663 126.625 170.506 126.941H168.776C169.09 125.995 169.405 125.048 169.72 124.26C170.034 123.393 170.349 122.683 170.585 121.895C170.899 121.185 171.135 120.475 171.45 119.766C171.764 119.135 172 118.425 172.315 117.795H173.888C174.203 118.425 174.517 119.135 174.753 119.766C175.068 120.397 175.304 121.106 175.618 121.895C175.933 122.604 176.247 123.393 176.562 124.26C176.876 125.127 177.191 125.995 177.506 126.941H175.933V127.02ZM173.259 119.608C173.023 120.081 172.787 120.633 172.551 121.343C172.315 121.973 172 122.762 171.764 123.55H174.753C174.438 122.762 174.202 122.052 173.967 121.343C173.731 120.633 173.495 120.081 173.259 119.608Z" fill="white"/>
<path d="M68.1081 140.817V141.842H62.9961V133.406H64.1758V140.817H68.1081Z" fill="white"/>
<path d="M73.928 142C73.3774 142 72.9056 141.921 72.5123 141.764C72.1191 141.606 71.8045 141.369 71.4899 141.054C71.254 140.739 71.018 140.423 70.9394 140.029C70.7821 139.635 70.7821 139.162 70.7821 138.689V133.406H71.9618V138.61C71.9618 139.477 72.1191 140.108 72.5123 140.423C72.9056 140.817 73.3774 140.975 74.0066 140.975C74.3212 140.975 74.5571 140.896 74.7931 140.817C75.029 140.739 75.265 140.581 75.4223 140.423C75.5796 140.266 75.7369 139.95 75.8155 139.635C75.8941 139.319 75.9728 139.004 75.9728 138.531V133.327H77.1525V138.61C77.1525 139.083 77.0738 139.556 76.9952 139.95C76.8379 140.344 76.6806 140.739 76.4447 140.975C76.2087 141.29 75.8155 141.527 75.4223 141.685C74.9504 141.921 74.4785 142 73.928 142Z" fill="white"/>
<path d="M85.961 141.842C85.8037 141.606 85.7251 141.29 85.4891 141.054C85.3318 140.739 85.0959 140.423 84.9386 140.108C84.7027 139.792 84.5454 139.477 84.3094 139.162C84.0735 138.846 83.9162 138.531 83.6802 138.216C83.4443 138.531 83.287 138.767 83.0511 139.162C82.8151 139.477 82.6578 139.792 82.4219 140.108C82.186 140.423 82.0287 140.739 81.8714 141.054C81.7141 141.369 81.5568 141.606 81.3995 141.842H80.0625C80.4557 141.133 80.849 140.423 81.3208 139.635C81.7927 138.925 82.3433 138.137 82.8938 137.348L80.2198 133.327H81.5568L83.6016 136.481L85.6464 133.327H86.9834L84.3094 137.269C84.8599 138.058 85.4105 138.846 85.8824 139.556C86.3542 140.266 86.8261 141.054 87.1407 141.764H85.961V141.842Z" fill="white"/>
<path d="M93.4324 142C92.8818 142 92.41 141.921 92.0167 141.764C91.6235 141.606 91.3089 141.369 90.9943 141.054C90.7584 140.739 90.5224 140.423 90.4438 140.029C90.2865 139.635 90.2865 139.162 90.2865 138.689V133.406H91.4662V138.61C91.4662 139.477 91.6235 140.108 92.0167 140.423C92.41 140.817 92.8818 140.975 93.511 140.975C93.8256 140.975 94.0615 140.896 94.2975 140.817C94.5334 140.739 94.7694 140.581 94.9267 140.423C95.0839 140.266 95.2412 139.95 95.3199 139.635C95.3985 139.319 95.4772 139.004 95.4772 138.531V133.327H96.6569V138.61C96.6569 139.083 96.5782 139.556 96.4996 139.95C96.3423 140.344 96.185 140.739 95.9491 140.975C95.7131 141.29 95.3199 141.527 94.9267 141.685C94.4548 141.921 93.9829 142 93.4324 142Z" fill="white"/>
<path d="M104.522 138.294C104.679 138.452 104.836 138.689 104.993 138.925C105.229 139.162 105.387 139.477 105.623 139.792C105.859 140.108 106.016 140.423 106.252 140.817C106.488 141.133 106.645 141.527 106.802 141.842H105.544C105.387 141.527 105.229 141.212 104.993 140.896C104.836 140.581 104.6 140.266 104.443 139.95C104.286 139.635 104.05 139.398 103.892 139.162C103.735 138.925 103.499 138.689 103.342 138.531C103.263 138.531 103.106 138.531 103.027 138.531C102.949 138.531 102.791 138.531 102.713 138.531H101.69V141.842H100.511V133.485C100.825 133.406 101.218 133.327 101.612 133.327C102.005 133.327 102.398 133.248 102.713 133.248C103.892 133.248 104.836 133.485 105.387 133.958C106.016 134.431 106.33 135.062 106.33 135.929C106.33 136.481 106.173 136.954 105.859 137.348C105.465 137.821 105.072 138.058 104.522 138.294ZM102.713 134.352C102.241 134.352 101.848 134.352 101.533 134.352V137.506H102.398C102.791 137.506 103.185 137.506 103.499 137.427C103.814 137.348 104.128 137.348 104.286 137.191C104.522 137.112 104.679 136.954 104.836 136.717C104.993 136.481 104.993 136.244 104.993 135.929C104.993 135.614 104.915 135.377 104.836 135.141C104.679 134.904 104.522 134.746 104.364 134.668C104.128 134.51 103.892 134.431 103.656 134.431C103.342 134.352 103.027 134.352 102.713 134.352Z" fill="white"/>
<path d="M111.521 141.842V138.452C110.971 137.585 110.42 136.717 109.948 135.85C109.476 134.983 109.004 134.194 108.533 133.327H109.948C110.263 133.958 110.577 134.668 110.971 135.377C111.364 136.087 111.757 136.717 112.15 137.348C112.544 136.717 112.937 136.087 113.33 135.377C113.723 134.668 114.038 134.037 114.352 133.327H115.689C115.218 134.116 114.746 134.983 114.274 135.771C113.802 136.639 113.251 137.427 112.701 138.294V141.685H111.521V141.842Z" fill="white"/>
<path d="M123.004 141.842V133.406H128.116V134.431H124.183V136.954H127.644V137.979H124.183V141.842H123.004Z" fill="white"/>
<path d="M130.711 137.585C130.711 136.875 130.79 136.244 131.026 135.692C131.261 135.141 131.497 134.667 131.891 134.273C132.284 133.879 132.677 133.642 133.149 133.406C133.621 133.248 134.171 133.091 134.722 133.091C135.272 133.091 135.744 133.169 136.295 133.406C136.767 133.564 137.239 133.879 137.553 134.273C137.946 134.667 138.182 135.141 138.418 135.692C138.654 136.244 138.733 136.875 138.733 137.585C138.733 138.294 138.654 138.925 138.418 139.477C138.182 140.029 137.946 140.502 137.553 140.896C137.16 141.29 136.767 141.527 136.295 141.764C135.823 141.921 135.272 142.079 134.722 142.079C134.171 142.079 133.621 142 133.149 141.764C132.677 141.606 132.205 141.29 131.891 140.896C131.497 140.502 131.261 140.029 131.026 139.477C130.868 138.925 130.711 138.294 130.711 137.585ZM131.969 137.585C131.969 138.058 132.048 138.531 132.127 139.004C132.205 139.477 132.441 139.792 132.677 140.108C132.913 140.423 133.228 140.66 133.542 140.817C133.857 140.975 134.25 141.054 134.722 141.054C135.115 141.054 135.508 140.975 135.902 140.817C136.216 140.66 136.531 140.423 136.767 140.108C137.003 139.792 137.16 139.477 137.317 139.004C137.475 138.61 137.475 138.137 137.475 137.585C137.475 137.033 137.396 136.639 137.317 136.166C137.16 135.771 137.003 135.377 136.767 135.062C136.531 134.746 136.216 134.51 135.902 134.352C135.587 134.194 135.194 134.116 134.722 134.116C134.329 134.116 133.935 134.194 133.542 134.352C133.228 134.51 132.913 134.746 132.677 135.062C132.441 135.377 132.284 135.692 132.127 136.166C132.048 136.639 131.969 137.112 131.969 137.585Z" fill="white"/>
<path d="M146.362 138.294C146.519 138.452 146.676 138.689 146.834 138.925C147.07 139.162 147.227 139.477 147.463 139.792C147.699 140.108 147.856 140.423 148.092 140.817C148.328 141.133 148.485 141.527 148.642 141.842H147.384C147.227 141.527 147.07 141.212 146.834 140.896C146.676 140.581 146.44 140.266 146.283 139.95C146.126 139.635 145.89 139.398 145.733 139.162C145.575 138.925 145.339 138.689 145.182 138.531C145.103 138.531 144.946 138.531 144.867 138.531C144.789 138.531 144.631 138.531 144.553 138.531H143.53V141.842H142.351V133.485C142.665 133.406 143.059 133.327 143.452 133.327C143.845 133.327 144.238 133.248 144.553 133.248C145.733 133.248 146.676 133.485 147.227 133.958C147.856 134.431 148.171 135.062 148.171 135.929C148.171 136.481 148.013 136.954 147.699 137.348C147.384 137.821 146.912 138.058 146.362 138.294ZM144.553 134.352C144.081 134.352 143.688 134.352 143.373 134.352V137.506H144.238C144.631 137.506 145.025 137.506 145.339 137.427C145.654 137.348 145.968 137.348 146.126 137.191C146.362 137.112 146.519 136.954 146.676 136.717C146.834 136.481 146.834 136.244 146.834 135.929C146.834 135.614 146.755 135.377 146.676 135.141C146.519 134.904 146.362 134.746 146.204 134.668C145.968 134.51 145.733 134.431 145.497 134.431C145.182 134.352 144.867 134.352 144.553 134.352Z" fill="white"/>
<path d="M161.776 141.842C161.619 141.448 161.54 141.133 161.383 140.739C161.226 140.423 161.147 140.029 160.99 139.635H157.136L156.35 141.764H155.091C155.406 140.896 155.721 140.029 156.035 139.319C156.35 138.531 156.586 137.821 156.9 137.191C157.136 136.481 157.451 135.85 157.687 135.219C157.923 134.589 158.237 133.958 158.552 133.406H159.653C159.968 134.037 160.203 134.668 160.518 135.219C160.754 135.85 161.069 136.481 161.305 137.191C161.54 137.9 161.855 138.61 162.17 139.319C162.484 140.108 162.72 140.896 163.113 141.764H161.776V141.842ZM160.675 138.689C160.439 137.979 160.125 137.269 159.889 136.639C159.653 136.008 159.338 135.377 159.102 134.746C158.788 135.377 158.552 136.008 158.316 136.639C158.08 137.269 157.844 137.979 157.529 138.689H160.675Z" fill="white"/>
<path d="M170.978 140.817V141.842H165.866V133.406H167.046V140.817H170.978Z" fill="white"/>
<path d="M179 140.817V141.842H173.888V133.406H175.068V140.817H179Z" fill="white"/>
<path d="M55.1313 138.452H6.13441C5.50524 138.452 4.95471 137.9 4.95471 137.269C4.95471 136.639 5.50524 136.087 6.13441 136.087H55.0527C55.6819 136.087 56.2324 136.639 56.2324 137.269C56.311 137.9 55.7605 138.452 55.1313 138.452Z" fill="white"/>
<path d="M79.0399 65.1261C78.9613 65.1261 78.8827 65.1261 78.7254 65.1261C78.3321 65.1261 78.0175 65.1261 77.6243 65.1261C75.029 71.1972 72.4336 77.1106 70.0742 82.0778C71.3326 82.8663 72.6696 83.497 74.1639 83.9701C74.3998 84.049 74.5571 84.1278 74.793 84.2066C75.029 84.2855 75.1863 84.2855 75.4222 84.3643C75.6581 84.4432 75.8154 84.4432 76.0514 84.522C76.2087 84.522 76.2873 84.6009 76.4446 84.6009C78.4894 78.924 81.0848 72.1433 83.6015 65.8357C82.3431 65.4415 80.8488 65.1261 79.0399 65.1261ZM79.0399 65.1261C78.9613 65.1261 78.8827 65.1261 78.7254 65.1261C78.3321 65.1261 78.0175 65.1261 77.6243 65.1261C75.029 71.1972 72.4336 77.1106 70.0742 82.0778C71.3326 82.8663 72.6696 83.497 74.1639 83.9701C74.3998 84.049 74.5571 84.1278 74.793 84.2066C75.029 84.2855 75.1863 84.2855 75.4222 84.3643C75.6581 84.4432 75.8154 84.4432 76.0514 84.522C76.2087 84.522 76.2873 84.6009 76.4446 84.6009C78.4894 78.924 81.0848 72.1433 83.6015 65.8357C82.3431 65.4415 80.8488 65.1261 79.0399 65.1261ZM79.0399 65.1261C78.9613 65.1261 78.8827 65.1261 78.7254 65.1261C78.3321 65.1261 78.0175 65.1261 77.6243 65.1261C75.029 71.1972 72.4336 77.1106 70.0742 82.0778C71.3326 82.8663 72.6696 83.497 74.1639 83.9701C74.3998 84.049 74.5571 84.1278 74.793 84.2066C75.029 84.2855 75.1863 84.2855 75.4222 84.3643C75.6581 84.4432 75.8154 84.4432 76.0514 84.522C76.2087 84.522 76.2873 84.6009 76.4446 84.6009C78.4894 78.924 81.0848 72.1433 83.6015 65.8357C82.3431 65.4415 80.8488 65.1261 79.0399 65.1261ZM79.0399 65.1261C78.9613 65.1261 78.8827 65.1261 78.7254 65.1261C78.3321 65.1261 78.0175 65.1261 77.6243 65.1261C75.029 71.1972 72.4336 77.1106 70.0742 82.0778C71.3326 82.8663 72.6696 83.497 74.1639 83.9701C74.3998 84.049 74.5571 84.1278 74.793 84.2066C75.029 84.2855 75.1863 84.2855 75.4222 84.3643C75.6581 84.4432 75.8154 84.4432 76.0514 84.522C76.2087 84.522 76.2873 84.6009 76.4446 84.6009C78.4894 78.924 81.0848 72.1433 83.6015 65.8357C82.3431 65.4415 80.8488 65.1261 79.0399 65.1261ZM79.0399 65.1261C78.9613 65.1261 78.8827 65.1261 78.7254 65.1261C78.3321 65.1261 78.0175 65.1261 77.6243 65.1261C75.029 71.1972 72.4336 77.1106 70.0742 82.0778C71.3326 82.8663 72.6696 83.497 74.1639 83.9701C74.3998 84.049 74.5571 84.1278 74.793 84.2066C75.029 84.2855 75.1863 84.2855 75.4222 84.3643C75.6581 84.4432 75.8154 84.4432 76.0514 84.522C76.2087 84.522 76.2873 84.6009 76.4446 84.6009C78.4894 78.924 81.0848 72.1433 83.6015 65.8357C82.3431 65.4415 80.8488 65.1261 79.0399 65.1261ZM79.0399 65.1261C78.9613 65.1261 78.8827 65.1261 78.7254 65.1261C78.3321 65.1261 78.0175 65.1261 77.6243 65.1261C75.029 71.1972 72.4336 77.1106 70.0742 82.0778C71.3326 82.8663 72.6696 83.497 74.1639 83.9701C74.3998 84.049 74.5571 84.1278 74.793 84.2066C75.029 84.2855 75.1863 84.2855 75.4222 84.3643C75.6581 84.4432 75.8154 84.4432 76.0514 84.522C76.2087 84.522 76.2873 84.6009 76.4446 84.6009C78.4894 78.924 81.0848 72.1433 83.6015 65.8357C82.3431 65.4415 80.8488 65.1261 79.0399 65.1261ZM79.0399 65.1261C78.9613 65.1261 78.8827 65.1261 78.7254 65.1261C78.3321 65.1261 78.0175 65.1261 77.6243 65.1261C75.029 71.1972 72.4336 77.1106 70.0742 82.0778C71.3326 82.8663 72.6696 83.497 74.1639 83.9701C74.3998 84.049 74.5571 84.1278 74.793 84.2066C75.029 84.2855 75.1863 84.2855 75.4222 84.3643C75.6581 84.4432 75.8154 84.4432 76.0514 84.522C76.2087 84.522 76.2873 84.6009 76.4446 84.6009C78.4894 78.924 81.0848 72.1433 83.6015 65.8357C82.3431 65.4415 80.8488 65.1261 79.0399 65.1261ZM132.756 97.768C131.183 97.768 128.509 97.2949 126.385 94.4565C124.97 92.4854 118.599 78.924 112.072 64.5742C108.218 66.0723 104.993 69.1472 103.578 70.6453C103.263 70.9607 103.106 71.3549 103.106 71.828L111.364 90.9085C111.364 90.9085 112.386 92.9584 111.836 94.6142C111.364 96.2699 106.409 98.0045 106.409 98.0045V101.316H134.093V97.6103C134.093 97.6103 133.621 97.768 132.756 97.768ZM79.0399 65.1261C78.9613 65.1261 78.8827 65.1261 78.7254 65.1261C78.3321 65.1261 78.0175 65.1261 77.6243 65.1261C75.029 71.1972 72.4336 77.1106 70.0742 82.0778C71.3326 82.8663 72.6696 83.497 74.1639 83.9701C74.3998 84.049 74.5571 84.1278 74.793 84.2066C75.029 84.2855 75.1863 84.2855 75.4222 84.3643C75.6581 84.4432 75.8154 84.4432 76.0514 84.522C76.2087 84.522 76.2873 84.6009 76.4446 84.6009C78.4894 78.924 81.0848 72.1433 83.6015 65.8357C82.3431 65.4415 80.8488 65.1261 79.0399 65.1261ZM79.0399 65.1261C78.9613 65.1261 78.8827 65.1261 78.7254 65.1261C78.3321 65.1261 78.0175 65.1261 77.6243 65.1261C75.029 71.1972 72.4336 77.1106 70.0742 82.0778C71.3326 82.8663 72.6696 83.497 74.1639 83.9701C74.3998 84.049 74.5571 84.1278 74.793 84.2066C75.029 84.2855 75.1863 84.2855 75.4222 84.3643C75.6581 84.4432 75.8154 84.4432 76.0514 84.522C76.2087 84.522 76.2873 84.6009 76.4446 84.6009C78.4894 78.924 81.0848 72.1433 83.6015 65.8357C82.3431 65.4415 80.8488 65.1261 79.0399 65.1261Z" fill="white"/>
<path d="M75.5795 98.0835V101.316H53.9517V98.0835C53.9517 98.0835 54.1876 98.1623 54.6595 98.1623C55.8392 98.1623 58.5918 97.6892 63.0747 94.0624C63.6252 93.6681 64.2544 92.8009 64.9622 91.697C67.5575 92.722 70.3102 93.5105 73.2201 93.9047C72.5123 96.1123 72.1977 97.5316 72.355 97.7681C72.7482 98.2412 73.2988 98.3989 73.9279 98.3989C74.7931 98.3989 75.5795 98.0835 75.5795 98.0835Z" fill="white"/>
<path d="M108.847 57.7147C108.768 57.7147 108.69 57.7147 108.611 57.7147C108.533 57.7147 108.375 57.7147 108.297 57.7935C108.218 57.7935 108.061 57.8724 107.982 57.8724C104.915 58.5031 101.769 60.0012 98.859 62.2089L91.6235 45.4937C91.6235 45.4937 89.6573 50.3821 86.9833 57.0839C86.826 57.0051 86.6687 57.0051 86.5114 56.9262C86.3541 56.8474 86.1968 56.8474 86.0395 56.7686C85.8822 56.6897 85.725 56.6897 85.5677 56.6109C85.4104 56.532 85.2531 56.532 85.0958 56.532C85.0171 56.532 84.8598 56.4532 84.7812 56.4532C84.388 56.3743 83.9947 56.2955 83.6015 56.2166C83.3656 56.1378 83.051 56.1378 82.815 56.0589C82.6577 56.0589 82.5791 55.9801 82.4218 55.9801C82.2645 55.9801 82.1859 55.9801 82.0286 55.9013C81.8713 55.9013 81.714 55.8224 81.478 55.8224C84.7025 47.9379 87.6911 40.4476 89.7359 35.4015C89.8146 35.165 89.8932 34.9285 89.9719 34.7708C90.0505 34.5342 90.1292 34.2977 90.2078 34.0612C91.0729 31.8535 91.7021 30.1978 92.0167 29.3305C92.174 28.8574 92.2526 28.6997 92.2526 28.6997H95.7131C95.7131 28.6997 95.7917 28.9362 96.0277 29.3305C96.7355 30.9862 98.7017 35.4015 101.376 41.2361C101.69 41.8668 101.926 42.4976 102.241 43.2072C102.555 43.9168 102.87 44.7053 103.263 45.4149C105.072 49.2783 106.96 53.4571 108.847 57.7147Z" fill="white"/>
<path d="M119.543 62.7606C118.521 62.4453 117.42 62.2876 116.397 62.2876C115.139 62.2876 113.959 62.5241 112.779 62.8395C112.543 62.9183 112.308 62.9972 112.072 63.076C111.836 63.1549 111.6 63.2337 111.442 63.3126C107.117 65.0471 103.578 68.5163 102.241 69.9355C102.005 70.1721 101.769 70.4086 101.69 70.4875C101.612 70.5663 101.612 70.5663 101.612 70.5663V87.518C101.612 87.9911 101.376 88.3853 100.904 88.543C93.8256 91.6179 86.6687 93.0372 80.0624 93.0372C78.3322 93.0372 76.6806 92.9583 75.029 92.7218C74.7931 92.7218 74.5571 92.6429 74.3212 92.6429C74.0852 92.6429 73.8493 92.5641 73.6134 92.5641C70.8607 92.1699 68.1867 91.4602 65.67 90.4353C65.4341 90.3564 65.1981 90.2776 65.0409 90.1987C64.8049 90.1199 64.569 90.041 64.4117 89.8834C53.1652 84.995 45.6151 74.5874 45.6151 60.1588C45.6151 40.684 58.8278 33.4303 66.7711 30.7495C69.6024 29.8034 72.5909 29.3303 75.5795 29.3303H90.601C90.2078 30.2765 89.6573 31.7745 88.9495 33.6668C86.9833 33.1149 84.8598 32.7995 82.5791 32.7995C67.3216 32.7995 58.5918 44.8628 58.5918 56.9261C58.5918 66.5452 60.2434 76.9528 68.2654 82.6296C68.4227 82.7873 68.6586 82.8661 68.8945 83.0238C69.0518 83.1815 69.2878 83.2604 69.5237 83.4181C69.681 83.4969 69.8383 83.5757 69.9956 83.6546C70.0742 83.6546 70.0742 83.7334 70.1529 83.7334C70.2315 83.8123 70.3102 83.8123 70.3888 83.8911C70.5461 83.97 70.7034 84.0488 70.8607 84.1277C70.9394 84.1277 71.018 84.2065 71.0967 84.2065C71.254 84.2854 71.3326 84.3642 71.4899 84.3642C71.4899 84.3642 71.5685 84.3642 71.5685 84.443C71.5685 84.443 71.6472 84.443 71.6472 84.5219C71.8831 84.6796 72.1977 84.7584 72.4337 84.8373C72.5123 84.8373 72.5123 84.9161 72.5909 84.9161C72.8269 84.995 73.0628 85.0738 73.2201 85.1526C73.3774 85.2315 73.5347 85.2315 73.692 85.3103H73.7706C74.0066 85.3892 74.2425 85.468 74.4785 85.5469C74.7144 85.6257 74.9503 85.7046 75.1076 85.7046C75.3436 85.7834 75.5009 85.7834 75.7368 85.8622C75.8155 85.8622 75.8941 85.8623 75.9728 85.9411C76.2087 86.0199 76.4446 86.0199 76.6806 86.0988C76.9165 86.1776 77.1525 86.1776 77.3884 86.2565C80.4556 86.9661 82.8937 87.2026 84.7025 87.2026C90.7583 87.2026 91.1516 84.5219 91.1516 84.5219C91.1516 84.5219 91.1516 76.8739 91.1516 73.1682C91.1516 70.5663 89.4213 66.9394 85.4104 64.9683C85.1744 64.8895 84.9385 64.7318 84.7812 64.6529C84.5453 64.5741 84.3093 64.4952 84.152 64.4164C82.7364 63.9433 81.0848 63.6279 79.1186 63.6279C79.04 63.6279 78.8827 63.6279 78.804 63.6279C78.6467 63.6279 78.4894 63.6279 78.3322 63.6279C78.0962 63.6279 77.8603 63.6279 77.6243 63.6279H77.5457C77.2311 63.6279 76.9952 63.6279 76.7592 63.7068C69.8383 64.3375 68.344 67.4125 68.344 69.8567C68.6586 69.699 68.9732 69.6202 69.2878 69.6202H69.3664C70.7034 69.6202 71.8831 70.724 71.9618 72.0644C71.9618 72.5374 71.8831 72.9317 71.7258 73.3259C71.3326 74.272 70.3888 74.9028 69.3664 74.9028C68.6586 74.8239 66.8497 74.4297 65.5127 72.9317C63.5466 70.8028 63.8612 67.9644 63.9398 67.0971C64.4117 63.1549 67.6362 60.7895 68.6586 59.9222C71.8831 57.5569 75.5009 57.0049 78.3322 57.0049C78.7254 57.0049 79.1186 57.0049 79.5119 57.0049C79.7478 57.0049 80.0624 57.0049 80.2983 57.0838C80.5343 57.0838 80.7702 57.1626 81.0061 57.1626C81.3207 57.1626 81.6353 57.2415 81.9499 57.2415C82.1072 57.2415 82.1858 57.2415 82.3431 57.3203C82.5004 57.3203 82.5791 57.3203 82.7364 57.3992C82.9723 57.478 83.2083 57.478 83.4442 57.5569C83.6801 57.6357 83.9161 57.6357 84.152 57.7146C84.152 57.7146 84.152 57.7146 84.2307 57.7146C84.4666 57.7934 84.7025 57.7934 84.9385 57.8722C85.2531 57.9511 85.489 58.0299 85.8036 58.1088C85.9609 58.1876 86.0395 58.1876 86.1968 58.2665C86.3541 58.3453 86.4328 58.3453 86.5901 58.4242C86.5901 58.4242 86.5901 58.4242 86.6687 58.4242C86.9047 58.503 87.0619 58.5818 87.2979 58.6607C87.5338 58.7395 87.7698 58.8184 88.0057 58.8972C92.8032 60.7895 96.0277 63.8645 97.4433 65.3625C97.7579 65.0471 98.1511 64.7318 98.4657 64.4164C98.623 64.2587 98.859 64.101 99.0163 63.9433C99.1735 63.7856 99.4095 63.6279 99.5668 63.4702C102.398 61.2626 105.387 59.7645 108.375 59.2126C108.454 59.2126 108.611 59.1338 108.69 59.1338C108.768 59.1338 108.926 59.1338 109.004 59.0549C109.24 59.0549 109.398 58.9761 109.634 58.9761C109.791 58.9761 109.869 58.9761 110.027 58.9761C110.184 58.9761 110.263 58.9761 110.42 58.9761C110.656 58.9761 110.892 58.9761 111.128 58.9761C112.701 58.9761 114.195 59.2915 115.532 59.8434C116.633 60.3164 118.049 61.1837 119.543 62.7606Z" fill="white"/>
<path d="M84.8598 57.9511C84.6239 57.8723 84.3879 57.8723 84.152 57.7935C84.2306 57.7935 84.3879 57.8723 84.4666 57.8723C84.6239 57.8723 84.7025 57.8723 84.8598 57.9511Z" fill="white"/>
<path d="M106.645 27.99V47.6224C104.679 44.1532 102.713 40.3687 100.825 36.4264C99.724 34.0611 98.623 31.6957 97.6792 29.4092H104.207V28.0688H106.645V27.99Z" fill="white"/>
<path d="M110.892 9.77678C109.398 9.77678 108.139 11.0383 108.139 12.5364C108.139 13.246 108.375 13.7979 108.768 14.2709C108.768 14.3498 108.69 14.4286 108.69 14.4286C107.353 16.2421 106.016 18.1344 103.814 19.0805C101.848 19.9478 99.96 19.0805 99.4095 17.0305C99.0949 16.0055 98.9376 14.9017 99.0162 13.7979C99.0949 12.694 99.0162 11.5114 99.5667 10.5652C100.668 10.171 101.454 9.14602 101.454 7.96334C101.454 6.46529 100.196 5.20376 98.7016 5.20376C97.2074 5.20376 95.949 6.46529 95.949 7.96334C95.949 8.98833 96.4995 9.93447 97.3646 10.4075C97.3646 10.7229 97.3646 10.9595 97.2073 11.3537C96.7355 12.6152 96.0276 13.7979 95.2412 14.9017C93.3537 17.5036 90.4437 17.3459 88.9494 14.5075C88.7921 14.1921 88.7135 13.8767 88.5562 13.4825C87.927 11.5114 87.6911 9.4614 87.4552 7.33258C87.3765 6.54413 87.2979 5.83452 87.6124 5.20376C88.5562 4.80954 89.264 3.78455 89.264 2.68072C89.264 1.18266 88.0057 -0.0788574 86.5114 -0.0788574C85.0171 -0.0788574 83.7588 1.18266 83.7588 2.68072C83.7588 3.78455 84.4666 4.80954 85.4103 5.20376C85.7249 5.75568 85.7249 6.38644 85.6463 6.93836C85.6463 9.4614 85.253 11.6691 84.6239 13.7979C84.2306 15.1382 83.6015 16.4786 82.0285 16.794C80.4556 17.1094 79.1972 16.3998 78.1748 15.3748C77.2311 14.3498 76.6019 13.1671 76.0514 11.9056C75.7368 11.3537 75.6581 10.8806 75.8154 10.4075C76.366 9.93447 76.7592 9.14602 76.7592 8.35757C76.7592 6.85951 75.5008 5.59799 74.0066 5.59799C72.5123 5.59799 71.2539 6.85951 71.2539 8.35757C71.2539 9.69793 72.1977 10.8018 73.5347 11.0383C73.6133 11.196 73.692 11.3537 73.7706 11.5114C74.3998 13.7979 74.5571 16.0055 73.6133 18.2132C73.1414 19.3959 72.1977 19.8689 71.018 19.9478C69.9956 19.9478 69.0518 19.5536 68.2653 18.9228C67.1643 18.1344 66.2205 17.1882 65.2768 16.1632C64.8835 15.6902 64.569 15.2959 64.4117 14.744C64.7262 14.2709 64.9622 13.719 64.9622 13.1671C64.9622 11.6691 63.7038 10.4075 62.2095 10.4075C60.7153 10.4075 59.4569 11.6691 59.4569 13.1671C59.4569 14.6652 60.7153 15.9267 62.2095 15.9267C62.4455 15.9267 62.6028 15.9267 62.8387 15.8478C63.0747 16.0055 63.3106 16.3209 63.4679 16.7151C64.8835 19.7901 65.9059 23.1016 66.6924 26.3342C66.7711 26.7285 66.9284 27.0439 67.1643 27.1227C67.5575 27.3592 68.0294 27.1227 68.1081 27.1227C69.445 26.6496 81.1634 25.3093 86.59 25.2304C92.0953 25.1516 103.971 26.1766 105.465 26.7285C105.623 26.8073 106.173 26.965 106.566 26.7285C106.802 26.5708 106.881 26.3342 106.96 25.8612C107.431 22.4708 108.69 19.317 109.869 16.0844C110.027 15.6902 110.184 15.3748 110.499 15.2171C110.656 15.2959 110.892 15.2959 111.049 15.2959C112.543 15.2959 113.802 14.0344 113.802 12.5364C113.645 10.9595 112.465 9.77678 110.892 9.77678Z" fill="white"/>
</g>
<defs>
<clipPath id="clip0_649_511">
<rect width="179" height="142" fill="white"/>
</clipPath>
</defs>
</svg>
