<svg width="199" height="37" viewBox="0 0 199 37" fill="none" xmlns="http://www.w3.org/2000/svg">
<g clip-path="url(#clip0_649_468)">
<path d="M40.6382 9.4342H42.2224V18.1316H40.6382V14.2779H36.8705V18.1316H35.2891V9.4342H36.8705V12.9109H40.6526L40.6382 9.4342Z" fill="white"/>
<path d="M52.3965 13.7771C52.4096 14.4492 52.2972 15.1177 52.0652 15.7486C51.867 16.2858 51.5589 16.7759 51.1608 17.1876C50.7822 17.569 50.3251 17.8636 49.8213 18.051C49.299 18.2456 48.7455 18.3431 48.1881 18.3388C47.6288 18.3424 47.0736 18.2449 46.5491 18.051C46.0432 17.8643 45.5841 17.5697 45.2039 17.1876C44.8057 16.7747 44.496 16.2851 44.2936 15.7486C44.0572 15.1187 43.9419 14.4498 43.9537 13.7771C43.9401 13.1025 44.0555 12.4314 44.2936 11.7999C44.504 11.2704 44.8207 10.7895 45.224 10.3868C45.6083 10.0069 46.0687 9.71269 46.575 9.52341C47.621 9.13967 48.7695 9.13967 49.8156 9.52341C50.3182 9.71155 50.7741 10.0061 51.1521 10.3868C51.5458 10.7927 51.8543 11.2732 52.0595 11.7999C52.2966 12.4316 52.4109 13.1027 52.3965 13.7771ZM45.6014 13.7771C45.5956 14.2161 45.6548 14.6535 45.7771 15.0751C45.8791 15.4368 46.0524 15.7744 46.2869 16.0681C46.5065 16.3342 46.7831 16.5476 47.0964 16.6926C47.4363 16.8442 47.8043 16.9225 48.1765 16.9225C48.5488 16.9225 48.9168 16.8442 49.2567 16.6926C49.5708 16.5451 49.8475 16.3287 50.0662 16.0594C50.2993 15.7649 50.4725 15.4275 50.576 15.0665C50.8089 14.2188 50.8089 13.324 50.576 12.4763C50.4734 12.1149 50.3001 11.7774 50.0662 11.4834C49.8475 11.2141 49.5708 10.9977 49.2567 10.8502C48.9184 10.7003 48.5524 10.6228 48.1823 10.6228C47.8122 10.6228 47.4462 10.7003 47.1079 10.8502C46.7921 10.9975 46.5149 11.2162 46.2984 11.4891C46.0656 11.7839 45.8924 12.1211 45.7886 12.482C45.6617 12.902 45.5986 13.3385 45.6014 13.7771Z" fill="white"/>
<path d="M59.8974 9.4342V10.8013H57.2214V18.1316H55.6256V10.8013H52.9496V9.4342H59.8974Z" fill="white"/>
<path d="M61.1042 18.1316V9.4342H66.6953V10.7782H62.6856V12.9224H66.2517V14.2405H62.6856V16.7905H67.0064V18.1316H61.1042Z" fill="white"/>
<path d="M73.9686 16.7645V18.1316H68.4668V9.4342H70.0482V16.7645H73.9686Z" fill="white"/>
<path d="M84.1685 9.4342V10.8013H81.4926V18.1316H79.8967V10.8013H77.2236V9.4342H84.1685Z" fill="white"/>
<path d="M90.7361 9.4342H92.3204V18.1316H90.7361V14.2779H86.9598V18.1316H85.3755V9.4342H86.9598V12.9109H90.7361V9.4342Z" fill="white"/>
<path d="M94.4087 18.1316V9.4342H99.9998V10.7782H95.9901V12.9224H99.559V14.2405H95.9901V16.7905H100.311V18.1316H94.4087Z" fill="white"/>
<path d="M108.768 10.6257C107.871 10.6257 107.187 10.9039 106.714 11.4603C106.242 12.0187 106.003 12.79 106.003 13.7628C105.999 14.1974 106.056 14.6305 106.173 15.0492C106.274 15.4119 106.445 15.7512 106.677 16.0479C106.899 16.3249 107.183 16.5458 107.506 16.6926C107.869 16.8541 108.262 16.9337 108.659 16.9257C108.947 16.9257 109.174 16.9257 109.376 16.8941C109.536 16.8799 109.695 16.853 109.851 16.8135V13.7023H111.435V17.8812C111.075 18.0052 110.705 18.1014 110.329 18.169C109.736 18.2757 109.134 18.3258 108.532 18.3187C107.943 18.3303 107.357 18.2327 106.803 18.0309C106.301 17.8408 105.848 17.5397 105.478 17.1502C105.099 16.7428 104.81 16.2604 104.629 15.7342C104.423 15.1105 104.326 14.4565 104.341 13.8002C104.328 13.1404 104.441 12.4842 104.672 11.8661C104.876 11.3349 105.186 10.8504 105.582 10.4415C105.967 10.0537 106.431 9.75246 106.942 9.55795C107.468 9.34726 108.029 9.23695 108.595 9.23273C108.955 9.2304 109.314 9.25735 109.67 9.31331C109.943 9.35806 110.213 9.41957 110.479 9.49751C110.672 9.55052 110.859 9.62184 111.038 9.71048C111.185 9.78531 111.288 9.83999 111.346 9.87453L110.871 11.1668C110.577 10.9979 110.262 10.8692 109.935 10.784C109.555 10.6777 109.162 10.6244 108.768 10.6257Z" fill="white"/>
<path d="M115.678 9.34498C116.934 9.34498 117.894 9.57522 118.559 10.0357C119.223 10.4962 119.556 11.1994 119.556 12.1453C119.556 13.3253 118.974 14.1244 117.81 14.5427C117.968 14.7355 118.15 14.9687 118.351 15.2449C118.553 15.5212 118.758 15.8206 118.965 16.1429C119.172 16.4652 119.377 16.7962 119.57 17.1358C119.763 17.4754 119.933 17.8064 120.086 18.1316H118.314C118.153 17.8438 117.983 17.5272 117.798 17.2222C117.614 16.9171 117.427 16.6206 117.24 16.33C117.052 16.0393 116.865 15.7716 116.681 15.5155C116.496 15.2593 116.324 15.032 116.165 14.8305C116.047 14.8305 115.946 14.8305 115.863 14.8305H114.857V18.1316H113.276V9.55795C113.681 9.47207 114.092 9.41627 114.506 9.39103C114.932 9.35937 115.333 9.34498 115.678 9.34498ZM115.791 10.7149C115.457 10.7149 115.145 10.7149 114.86 10.7523V13.5642H115.552C115.892 13.5677 116.231 13.5465 116.568 13.5009C116.825 13.4699 117.074 13.3929 117.303 13.2735C117.492 13.1751 117.647 13.0229 117.749 12.836C117.858 12.6183 117.911 12.3769 117.902 12.1338C117.909 11.8982 117.857 11.6646 117.749 11.4546C117.649 11.2707 117.499 11.1183 117.317 11.0142C117.107 10.8999 116.879 10.822 116.643 10.784C116.364 10.7365 116.08 10.7134 115.796 10.7149H115.791Z" fill="white"/>
<path d="M127.425 18.1316C127.307 17.7891 127.186 17.4495 127.059 17.1157C126.933 16.7818 126.812 16.4393 126.694 16.0853H123.015C122.9 16.4393 122.779 16.7818 122.658 17.1214C122.537 17.461 122.422 17.7978 122.298 18.1316H120.653C120.978 17.2049 121.287 16.3472 121.581 15.5586C121.869 14.7729 122.157 14.0275 122.445 13.3253C122.733 12.6231 123.004 11.9525 123.277 11.3107C123.551 10.6689 123.853 10.0472 124.141 9.42844H125.651C125.945 10.0463 126.233 10.6737 126.515 11.3107C126.797 11.9477 127.076 12.6192 127.35 13.3253C127.638 14.0275 127.926 14.7643 128.214 15.5586C128.502 16.353 128.822 17.2049 129.151 18.1316H127.425ZM124.856 11.115C124.663 11.5582 124.441 12.0993 124.196 12.7353C123.951 13.3713 123.692 14.0621 123.421 14.8075H126.287C126.019 14.0621 125.76 13.3685 125.507 12.7238C125.253 12.0791 125.04 11.5438 124.856 11.115Z" fill="white"/>
<path d="M136.093 18.1316C135.804 17.6567 135.491 17.1444 135.136 16.5947C134.782 16.045 134.422 15.4953 134.044 14.937C133.667 14.3787 133.284 13.8405 132.892 13.3195C132.501 12.7986 132.132 12.3237 131.78 11.9064V18.1316H130.222V9.4342H131.515C131.853 9.78532 132.213 10.2017 132.596 10.6833C132.978 11.1649 133.362 11.6647 133.748 12.1827C134.132 12.7008 134.508 13.2217 134.877 13.7455C135.246 14.2693 135.57 14.7566 135.851 15.2075V9.4342H137.423V18.1316H136.093Z" fill="white"/>
<path d="M146.906 13.7771C146.921 14.4483 146.801 15.1156 146.555 15.74C146.334 16.2763 145.992 16.7542 145.555 17.1358C145.101 17.5196 144.569 17.8013 143.997 17.9618C143.341 18.1495 142.662 18.2406 141.98 18.2323C141.629 18.2323 141.231 18.218 140.788 18.1892C140.361 18.1629 139.937 18.1023 139.52 18.0079V9.55795C139.941 9.46493 140.369 9.40622 140.799 9.38239C141.252 9.35936 141.663 9.34497 142.006 9.34497C142.681 9.33796 143.354 9.42514 144.005 9.604C144.574 9.7566 145.103 10.0305 145.555 10.407C145.994 10.7807 146.337 11.2545 146.555 11.7884C146.803 12.4214 146.922 13.0975 146.906 13.7771ZM141.102 16.8279C141.194 16.8279 141.315 16.8423 141.468 16.8451C141.62 16.848 141.822 16.8451 142.081 16.8451C143.147 16.8451 143.939 16.5775 144.463 16.0364C144.988 15.4953 145.247 14.7413 145.247 13.7714C145.247 12.8015 144.993 12.0273 144.481 11.4977C143.968 10.9682 143.179 10.7092 142.107 10.7092C141.772 10.703 141.436 10.7155 141.102 10.7466V16.8279Z" fill="white"/>
<path d="M157.362 18.1316C157.244 17.7891 157.123 17.4495 156.996 17.1157C156.87 16.7818 156.749 16.4393 156.631 16.0853H152.955C152.84 16.4393 152.719 16.7818 152.598 17.1214L152.235 18.1316H150.59C150.915 17.2049 151.224 16.3472 151.518 15.5586C151.806 14.7729 152.094 14.0275 152.382 13.3253C152.67 12.6231 152.941 11.9525 153.214 11.3107C153.488 10.6689 153.79 10.0472 154.078 9.42844H155.588C155.882 10.0463 156.17 10.6737 156.452 11.3107C156.734 11.9477 157.013 12.6192 157.287 13.3253C157.57 14.0275 157.858 14.772 158.151 15.5586C158.445 16.3453 158.752 17.203 159.07 18.1316H157.362ZM154.793 11.115C154.601 11.5582 154.381 12.0983 154.133 12.7353C153.885 13.3723 153.628 14.063 153.361 14.8075H156.224C155.956 14.0621 155.697 13.3685 155.447 12.7238C155.196 12.0791 154.971 11.5438 154.793 11.115Z" fill="white"/>
<path d="M165.667 16.7645V18.1316H160.156V9.4342H161.741V16.7645H165.667Z" fill="white"/>
<path d="M172.39 18.1316C172.275 17.8035 172.159 17.4783 172.038 17.156C171.917 16.8336 171.799 16.5055 171.687 16.1688H168.158C168.045 16.5065 167.93 16.8375 167.813 17.1617L167.47 18.1316H165.889C166.203 17.2413 166.501 16.4182 166.782 15.6623C167.07 14.9082 167.337 14.1916 167.605 13.5181C167.873 12.8447 168.141 12.2 168.406 11.5898C168.671 10.9797 168.945 10.3782 169.227 9.78244H170.667C170.95 10.3772 171.223 10.9797 171.488 11.5898C171.753 12.2 172.021 12.8447 172.289 13.5181C172.557 14.1916 172.836 14.9082 173.122 15.6623C173.407 16.4163 173.698 17.2423 174.02 18.1316H172.39ZM169.921 11.397C169.729 11.823 169.519 12.341 169.29 12.9512C169.051 13.5613 168.807 14.2261 168.547 14.9399H171.298C171.039 14.2261 170.791 13.5584 170.549 12.9396C170.307 12.3209 170.1 11.7999 169.921 11.397Z" fill="white"/>
<path d="M177.03 13.4807C177.393 12.8782 177.748 12.2681 178.093 11.6503C178.439 11.0325 178.752 10.4108 179.032 9.78532H180.72C180.271 10.6372 179.802 11.4824 179.315 12.3209C178.827 13.1593 178.306 14.0055 177.753 14.8593V18.1316H176.235V14.8794C175.678 14.0199 175.156 13.1689 174.668 12.3266C174.181 11.4843 173.71 10.6372 173.257 9.78532H175.04C175.322 10.4127 175.632 11.0353 175.97 11.6532C176.308 12.271 176.662 12.8802 177.03 13.4807Z" fill="white"/>
<path d="M187.389 18.1316C187.116 17.673 186.811 17.1819 186.473 16.6581C186.136 16.1314 185.784 15.6018 185.424 15.0665C185.064 14.5312 184.692 14.0131 184.321 13.5124C183.949 13.0116 183.589 12.5597 183.252 12.1568V18.1316H181.76V9.78532H183.002C183.324 10.1249 183.67 10.5221 184.039 10.9855C184.407 11.4488 184.782 11.9266 185.156 12.4245C185.531 12.9224 185.891 13.4232 186.239 13.9239C186.588 14.4247 186.902 14.8938 187.175 15.3284V9.78532H188.673V18.1316H187.389Z" fill="white"/>
<path d="M196.24 18.1316C196.125 17.8035 196.01 17.4783 195.889 17.156C195.768 16.8336 195.65 16.5055 195.538 16.1688H192.009C191.898 16.5065 191.782 16.8375 191.663 17.1617L191.321 18.1316H189.739C190.052 17.2413 190.35 16.4182 190.632 15.6623C190.92 14.9082 191.188 14.1916 191.456 13.5181C191.724 12.8447 191.992 12.2 192.257 11.5898C192.522 10.9797 192.795 10.3782 193.078 9.78244H194.518C194.8 10.3772 195.074 10.9797 195.339 11.5898C195.604 12.2 195.872 12.8447 196.14 13.5181C196.408 14.1916 196.687 14.9082 196.972 15.6623C197.257 16.4163 197.548 17.2423 197.871 18.1316H196.24ZM193.775 11.397C193.583 11.823 193.371 12.341 193.141 12.9512C192.902 13.5613 192.657 14.2261 192.398 14.9399H195.149C194.889 14.2261 194.642 13.5584 194.4 12.9396C194.158 12.3209 193.95 11.7999 193.775 11.397Z" fill="white"/>
<path d="M97.5571 30.6942V31.6296H92.9166V23.9193H93.9939V30.6942H97.5571Z" fill="white"/>
<path d="M102.926 31.7965C102.476 31.8069 102.029 31.7276 101.61 31.5634C101.261 31.4202 100.949 31.2009 100.697 30.9216C100.455 30.6419 100.276 30.3143 100.17 29.9603C100.052 29.5713 99.9935 29.1667 99.9968 28.7602V23.9193H101.077V28.6364C101.077 29.4039 101.248 29.9642 101.59 30.3172C101.764 30.4918 101.973 30.6282 102.203 30.7179C102.433 30.8076 102.68 30.8485 102.926 30.8381C103.182 30.8423 103.436 30.7994 103.675 30.7115C103.896 30.6277 104.093 30.4926 104.251 30.3172C104.427 30.1194 104.556 29.8856 104.632 29.6322C104.727 29.309 104.771 28.9732 104.764 28.6364V23.9193H105.844V28.7602C105.848 29.1667 105.789 29.5713 105.671 29.9603C105.568 30.3188 105.385 30.6492 105.135 30.9268C104.886 31.2045 104.577 31.4221 104.231 31.5634C103.816 31.7272 103.372 31.8065 102.926 31.7965Z" fill="white"/>
<path d="M113.904 31.6296C113.792 31.4051 113.659 31.1605 113.504 30.8899C113.348 30.6194 113.175 30.3373 112.991 30.0438C112.807 29.7502 112.611 29.4682 112.415 29.1804C112.219 28.8926 112.02 28.6048 111.839 28.3515C111.647 28.6105 111.455 28.8868 111.263 29.1804C111.061 29.4682 110.871 29.756 110.686 30.0438C110.502 30.3316 110.332 30.6194 110.174 30.8899C110.015 31.1605 109.886 31.4051 109.768 31.6296H108.575C108.924 30.9458 109.308 30.281 109.727 29.638C110.169 28.9607 110.638 28.2671 111.136 27.5572L108.664 23.9193H109.912L111.816 26.7974L113.697 23.9193H114.932L112.513 27.514C113.018 28.2335 113.492 28.9338 113.936 29.615C114.363 30.266 114.758 30.9385 115.117 31.6296H113.904Z" fill="white"/>
<path d="M120.728 31.7965C120.279 31.8066 119.832 31.7273 119.414 31.5634C119.066 31.421 118.753 31.2016 118.501 30.9216C118.259 30.642 118.078 30.3145 117.971 29.9603C117.854 29.5711 117.797 29.1665 117.801 28.7602V23.9193H118.879V28.6364C118.879 29.4077 119.052 29.969 119.391 30.3172C119.566 30.4915 119.775 30.6278 120.005 30.7174C120.235 30.8071 120.481 30.8482 120.728 30.8381C120.984 30.842 121.239 30.7991 121.48 30.7115C121.7 30.6271 121.897 30.492 122.056 30.3172C122.231 30.12 122.36 29.8859 122.433 29.6322C122.529 29.3092 122.575 28.9733 122.569 28.6364V23.9193H123.649V28.7602C123.652 29.1667 123.594 29.5713 123.476 29.9603C123.369 30.3158 123.187 30.6438 122.94 30.9216C122.688 31.2009 122.376 31.4202 122.027 31.5634C121.614 31.7268 121.172 31.806 120.728 31.7965Z" fill="white"/>
<path d="M130.85 28.4033C130.968 28.5501 131.118 28.7458 131.299 28.9789C131.481 29.212 131.668 29.4855 131.861 29.779C132.054 30.0726 132.247 30.3776 132.437 30.6971C132.614 30.9967 132.776 31.305 132.921 31.621H131.74C131.59 31.3332 131.429 31.0453 131.256 30.7575C131.083 30.4697 130.905 30.1819 130.726 29.9287C130.548 29.6754 130.372 29.4193 130.199 29.189C130.026 28.9588 129.865 28.7602 129.724 28.5875C129.629 28.5875 129.531 28.5875 129.436 28.5875H128.154V31.6296H127.074V24.0316C127.409 23.9528 127.75 23.9027 128.093 23.8819C128.468 23.856 128.811 23.8416 129.125 23.8416C130.208 23.8416 131.033 24.046 131.602 24.4547C131.885 24.6633 132.112 24.9397 132.26 25.2585C132.409 25.5774 132.474 25.9284 132.452 26.2793C132.464 26.7495 132.321 27.2106 132.045 27.5917C131.74 27.9787 131.323 28.2621 130.85 28.4033ZM129.214 24.7885C128.753 24.7885 128.399 24.7885 128.154 24.8202V27.7241H128.923C129.258 27.7266 129.593 27.7084 129.925 27.6694C130.186 27.6417 130.441 27.5697 130.677 27.4564C130.873 27.3585 131.037 27.2067 131.15 27.019C131.271 26.7879 131.329 26.5286 131.317 26.2678C131.326 26.0156 131.268 25.7655 131.15 25.5425C131.041 25.3549 130.887 25.1983 130.7 25.0878C130.494 24.9696 130.267 24.8906 130.032 24.8547C129.762 24.8085 129.488 24.7864 129.214 24.7885Z" fill="white"/>
<path d="M137.262 31.6296V28.5357C136.749 27.7452 136.269 26.9633 135.822 26.1901C135.374 25.4169 134.947 24.6599 134.54 23.9193H135.81C136.093 24.5276 136.407 25.1454 136.755 25.7728C137.104 26.3973 137.464 27.0017 137.835 27.5802C138.198 27.0046 138.555 26.3973 138.904 25.7728C139.252 25.1483 139.572 24.5266 139.863 23.9193H141.064C140.661 24.6657 140.233 25.4226 139.78 26.1901C139.326 26.9576 138.846 27.7346 138.339 28.5213V31.6296H137.262Z" fill="white"/>
<path d="M147.77 31.6296V23.9193H152.425V24.8432H148.853V27.1686H152.022V28.081H148.853V31.6296H147.77Z" fill="white"/>
<path d="M154.853 27.7701C154.839 27.1749 154.936 26.5822 155.141 26.0232C155.318 25.5466 155.594 25.113 155.951 24.7511C156.285 24.4153 156.688 24.1553 157.132 23.9884C157.592 23.8153 158.08 23.7285 158.572 23.7323C159.053 23.7297 159.531 23.8165 159.981 23.9884C160.415 24.1577 160.808 24.4177 161.133 24.7511C161.483 25.113 161.754 25.5431 161.931 26.0145C162.323 27.1453 162.323 28.3748 161.931 29.5056C161.754 29.977 161.483 30.4071 161.133 30.7691C160.808 31.1024 160.415 31.3625 159.981 31.5317C159.531 31.7036 159.053 31.7905 158.572 31.7879C158.08 31.7917 157.592 31.7048 157.132 31.5317C156.688 31.3649 156.285 31.1048 155.951 30.7691C155.598 30.4088 155.325 29.9783 155.15 29.5056C154.943 28.9508 154.843 28.3621 154.853 27.7701ZM155.991 27.7701C155.986 28.2006 156.045 28.6293 156.167 29.0422C156.272 29.3961 156.444 29.7265 156.674 30.015C156.89 30.2809 157.165 30.4928 157.478 30.6338C157.812 30.782 158.175 30.8556 158.54 30.8496C158.904 30.8556 159.265 30.7819 159.598 30.6338C159.907 30.4911 160.179 30.2794 160.393 30.015C160.624 29.7272 160.796 29.3966 160.9 29.0422C161.138 28.2099 161.138 27.3275 160.9 26.4952C160.796 26.1408 160.624 25.8102 160.393 25.5224C160.179 25.258 159.907 25.0463 159.598 24.9036C159.265 24.7555 158.904 24.6818 158.54 24.6878C158.175 24.6818 157.812 24.7555 157.478 24.9036C157.165 25.0446 156.89 25.2565 156.674 25.5224C156.444 25.811 156.272 26.1413 156.167 26.4952C156.045 26.909 155.986 27.3388 155.991 27.7701Z" fill="white"/>
<path d="M169.161 28.4033C169.282 28.5501 169.432 28.7458 169.613 28.9789C169.795 29.212 169.982 29.4854 170.175 29.779C170.368 30.0726 170.558 30.3776 170.751 30.6971C170.93 30.9954 171.092 31.3039 171.235 31.621H170.057C169.907 31.3331 169.746 31.0453 169.57 30.7575C169.394 30.4697 169.221 30.1819 169.043 29.9287C168.864 29.6754 168.688 29.4193 168.513 29.189C168.337 28.9588 168.181 28.7602 168.04 28.5875C167.942 28.5875 167.844 28.5875 167.752 28.5875H166.479V31.6296H165.399V24.0316C165.73 23.9552 166.068 23.907 166.407 23.8877C166.782 23.8618 167.124 23.8474 167.435 23.8474C168.519 23.8474 169.344 24.0517 169.913 24.4604C170.198 24.6676 170.427 24.9434 170.578 25.2622C170.729 25.5811 170.798 25.9329 170.777 26.2851C170.789 26.7552 170.646 27.2163 170.371 27.5975C170.06 27.9843 169.638 28.2658 169.161 28.4033ZM167.525 24.7885C167.064 24.7885 166.712 24.7885 166.468 24.8202V27.7241H167.237C167.571 27.7266 167.904 27.7083 168.236 27.6694C168.497 27.6423 168.752 27.5702 168.988 27.4564C169.185 27.3589 169.35 27.2071 169.463 27.019C169.584 26.7874 169.641 26.5285 169.63 26.2678C169.639 26.0157 169.581 25.7657 169.463 25.5425C169.355 25.3542 169.199 25.1974 169.011 25.0878C168.805 24.9696 168.578 24.8906 168.343 24.8547C168.073 24.8084 167.799 24.7862 167.525 24.7885Z" fill="white"/>
<path d="M183.235 31.6296C183.108 31.2957 182.99 30.9676 182.878 30.6453C182.765 30.323 182.653 29.9949 182.535 29.661H179.038L178.335 31.6296H177.212C177.508 30.8122 177.786 30.0572 178.047 29.3646C178.306 28.671 178.56 28.0148 178.81 27.3902C179.061 26.7657 179.306 26.1728 179.551 25.6059C179.796 25.0389 180.052 24.4633 180.32 23.9193H181.311C181.576 24.4633 181.832 25.0389 182.077 25.6145C182.322 26.1901 182.57 26.7657 182.817 27.3989C183.065 28.032 183.321 28.6796 183.581 29.3732C183.84 30.0668 184.119 30.8122 184.416 31.6382L183.235 31.6296ZM182.221 28.7803C181.985 28.1357 181.75 27.5111 181.515 26.9067C181.282 26.3023 181.037 25.721 180.786 25.1799C180.524 25.7354 180.28 26.3167 180.046 26.9067C179.813 27.4967 179.58 28.1357 179.349 28.7803H182.221Z" fill="white"/>
<path d="M191.663 30.6942V31.6296H187.02V23.9193H188.097V30.6942H191.663Z" fill="white"/>
<path d="M199 30.6942V31.6296H194.359V23.9193H195.437V30.6942H199Z" fill="white"/>
<path d="M85.6865 28.176H40.9205C40.3243 28.176 39.8403 27.8594 39.8403 27.4651C39.8403 27.0708 40.3271 26.7657 40.9205 26.7657H85.6865C86.2828 26.7657 86.7667 27.0852 86.7667 27.4766C86.7667 27.868 86.2828 28.176 85.6865 28.176Z" fill="white"/>
<path d="M12.2421 23.787H12.1327C12.0002 23.787 11.8619 23.787 11.7236 23.787C10.7731 26.0117 9.81098 28.1731 8.94971 29.9632C9.42451 30.2489 9.92983 30.4806 10.4562 30.6539L10.6953 30.7288L10.92 30.7921L11.1475 30.8496L11.2829 30.8842C12.0434 28.8062 12.9968 26.3283 13.8955 24.0229C13.361 23.8544 12.8025 23.7747 12.2421 23.787ZM12.2421 23.787H12.1327C12.0002 23.787 11.8619 23.787 11.7236 23.787C10.7731 26.0117 9.81098 28.1731 8.94971 29.9632C9.42451 30.2489 9.92983 30.4806 10.4562 30.6539L10.6953 30.7288L10.92 30.7921L11.1475 30.8496L11.2829 30.8842C12.0434 28.8062 12.9968 26.3283 13.8955 24.0229C13.361 23.8544 12.8025 23.7747 12.2421 23.787ZM12.2421 23.787H12.1327C12.0002 23.787 11.8619 23.787 11.7236 23.787C10.7731 26.0117 9.81098 28.1731 8.94971 29.9632C9.42451 30.2489 9.92983 30.4806 10.4562 30.6539L10.6953 30.7288L10.92 30.7921L11.1475 30.8496L11.2829 30.8842C12.0434 28.8062 12.9968 26.3283 13.8955 24.0229C13.361 23.8544 12.8025 23.7747 12.2421 23.787ZM12.2421 23.787H12.1327C12.0002 23.787 11.8619 23.787 11.7236 23.787C10.7731 26.0117 9.81098 28.1731 8.94971 29.9632C9.42451 30.2489 9.92983 30.4806 10.4562 30.6539L10.6953 30.7288L10.92 30.7921L11.1475 30.8496L11.2829 30.8842C12.0434 28.8062 12.9968 26.3283 13.8955 24.0229C13.361 23.8544 12.8025 23.7747 12.2421 23.787ZM12.2421 23.787H12.1327C12.0002 23.787 11.8619 23.787 11.7236 23.787C10.7731 26.0117 9.81098 28.1731 8.94971 29.9632C9.42451 30.2489 9.92983 30.4806 10.4562 30.6539L10.6953 30.7288L10.92 30.7921L11.1475 30.8496L11.2829 30.8842C12.0434 28.8062 12.9968 26.3283 13.8955 24.0229C13.361 23.8544 12.8025 23.7747 12.2421 23.787ZM12.2421 23.787H12.1327C12.0002 23.787 11.8619 23.787 11.7236 23.787C10.7731 26.0117 9.81098 28.1731 8.94971 29.9632C9.42451 30.2489 9.92983 30.4806 10.4562 30.6539L10.6953 30.7288L10.92 30.7921L11.1475 30.8496L11.2829 30.8842C12.0434 28.8062 12.9968 26.3283 13.8955 24.0229C13.361 23.8544 12.8025 23.7747 12.2421 23.787ZM12.2421 23.787H12.1327C12.0002 23.787 11.8619 23.787 11.7236 23.787C10.7731 26.0117 9.81098 28.1731 8.94971 29.9632C9.42451 30.2489 9.92983 30.4806 10.4562 30.6539L10.6953 30.7288L10.92 30.7921L11.1475 30.8496L11.2829 30.8842C12.0434 28.8062 12.9968 26.3283 13.8955 24.0229C13.361 23.8544 12.8025 23.7747 12.2421 23.787ZM31.9102 35.6876C31.4536 35.6895 31.0032 35.5811 30.5974 35.3716C30.1917 35.1622 29.8426 34.8579 29.5799 34.4846C29.0585 33.7766 26.7253 28.8149 24.3259 23.5826C22.9173 24.1352 21.7334 25.2461 21.2005 25.7929C21.0904 25.9099 21.0287 26.0641 21.0277 26.2246L24.0609 33.1981C24.0609 33.1981 24.4324 33.9435 24.2452 34.5393C24.058 35.135 22.2692 35.7884 22.2692 35.7884V37H32.4172V35.6387C32.2505 35.6735 32.0805 35.6899 31.9102 35.6876ZM12.2421 23.787H12.1327C12.0002 23.787 11.8619 23.787 11.7236 23.787C10.7731 26.0117 9.81098 28.1731 8.94971 29.9632C9.42451 30.2489 9.92983 30.4806 10.4562 30.6539L10.6953 30.7288L10.92 30.7921L11.1475 30.8496L11.2829 30.8842C12.0434 28.8062 12.9968 26.3283 13.8955 24.0229C13.361 23.8544 12.8025 23.7747 12.2421 23.787ZM12.2421 23.787H12.1327C12.0002 23.787 11.8619 23.787 11.7236 23.787C10.7731 26.0117 9.81098 28.1731 8.94971 29.9632C9.42451 30.2489 9.92983 30.4806 10.4562 30.6539L10.6953 30.7288L10.92 30.7921L11.1475 30.8496L11.2829 30.8842C12.0434 28.8062 12.9968 26.3283 13.8955 24.0229C13.361 23.8544 12.8025 23.7747 12.2421 23.787Z" fill="white"/>
<path d="M10.9862 35.8056V37H3.05908V35.8056C3.13968 35.8279 3.22324 35.8376 3.30681 35.8344C3.73888 35.8344 4.74706 35.6502 6.37743 34.3349C6.65034 34.0816 6.886 33.7909 7.07739 33.4715C8.0517 33.8541 9.06493 34.1292 10.099 34.2918C9.84268 35.112 9.71882 35.6243 9.79371 35.6876C9.86613 35.7664 9.95581 35.8275 10.0558 35.8659C10.1557 35.9044 10.2632 35.9192 10.3698 35.9092C10.5793 35.9057 10.7871 35.8708 10.9862 35.8056Z" fill="white"/>
<path d="M23.168 21.0557H23.0816L22.9635 21.073L22.8339 21.096C21.6184 21.3614 20.4789 21.8987 19.5011 22.6674L16.8424 16.5947C16.8424 16.5947 16.1309 18.3676 15.1515 20.837H15.1371L14.9643 20.7823L14.8059 20.7218L14.6446 20.6758L14.4804 20.6326L14.3508 20.601C14.2125 20.5664 14.0627 20.5377 13.9244 20.5089L13.6364 20.4599L13.4866 20.434L13.3426 20.4139L13.1525 20.3937C14.3479 17.5157 15.4338 14.7845 16.1655 12.9253C16.1972 12.8447 16.226 12.767 16.2577 12.6893L16.3527 12.4417C16.6724 11.6273 16.9087 11.0257 17.0296 10.7149L17.1218 10.4732H18.3892L18.4987 10.7149C18.7637 11.3078 19.4925 12.931 20.4574 15.0694L20.7801 15.786L21.1516 16.6063C21.7738 17.9935 22.468 19.5073 23.168 21.0557Z" fill="white"/>
<path d="M27.0768 22.912C26.704 22.7946 26.3154 22.7354 25.9246 22.7365C25.4764 22.7394 25.0311 22.8073 24.6024 22.9379C24.5189 22.9638 24.4354 22.9897 24.3518 23.0214L24.107 23.1106C22.5169 23.7438 21.2265 25.0044 20.731 25.5368C20.636 25.6346 20.5697 25.7095 20.538 25.7498L20.5063 25.7843V31.9462C20.5061 32.0259 20.4829 32.1039 20.4395 32.1707C20.3961 32.2376 20.3343 32.2905 20.2615 32.3232C17.8586 33.3806 15.2652 33.9378 12.6397 33.9608C12.0198 33.9619 11.4003 33.9264 10.7846 33.8543L10.5196 33.8198L10.2604 33.7824C9.2666 33.6335 8.29203 33.3768 7.35394 33.0168L7.11486 32.9218L6.87002 32.8153C2.76529 31.0367 0 27.2348 0 21.9536C0 14.8622 4.82773 12.2 7.73417 11.2243C8.77137 10.8881 9.85553 10.7191 10.9459 10.7236H16.4679C16.3354 11.0689 16.1251 11.61 15.8543 12.2978C15.0924 12.0822 14.3044 11.9728 13.5125 11.9726C7.91852 11.9726 4.7298 16.3875 4.7298 20.7794C4.7298 24.2762 5.33182 28.0925 8.28146 30.1618C8.35348 30.2136 8.42837 30.2625 8.50326 30.3115C8.57816 30.3604 8.64729 30.4035 8.72218 30.4467C8.77625 30.4811 8.83201 30.5128 8.88925 30.5417C8.90231 30.5524 8.91687 30.5611 8.93246 30.5676C8.9581 30.5842 8.98508 30.5986 9.01311 30.6108L9.19747 30.7086L9.27524 30.746L9.41062 30.8122H9.44231L9.47976 30.8295L9.76781 30.9561L9.82254 30.9763C9.90031 31.0079 9.98097 31.0396 10.0616 31.0655C10.1423 31.0914 10.174 31.1087 10.2287 31.1259H10.2661L10.511 31.2036C10.5888 31.2295 10.6694 31.2526 10.7501 31.2727C10.8307 31.2929 10.9056 31.313 10.9863 31.3332L11.064 31.3533L11.3175 31.4137L11.5768 31.4713C12.4589 31.6799 13.3608 31.7937 14.2672 31.8109C16.4708 31.8109 16.6378 30.8324 16.6378 30.8324V26.7312C16.6378 25.7958 16.0185 24.4547 14.5322 23.7467C14.4544 23.7092 14.3737 23.6718 14.2902 23.6402C14.2067 23.6085 14.1318 23.5768 14.0482 23.5481C13.4537 23.3516 12.8309 23.2544 12.2047 23.2603H12.0866H11.9138H11.6603H11.6661C11.5652 23.2603 11.4673 23.2603 11.378 23.2833C8.85469 23.5049 8.28723 24.6216 8.29299 25.531C8.40419 25.4887 8.52254 25.4681 8.64153 25.4706H8.67898C8.83734 25.4711 8.99305 25.5112 9.13198 25.5871C9.27091 25.6631 9.38865 25.7725 9.4745 25.9055C9.56035 26.0384 9.6116 26.1907 9.62359 26.3485C9.63557 26.5062 9.60791 26.6645 9.54313 26.8089C9.46864 26.9758 9.34742 27.1175 9.19409 27.2171C9.04075 27.3167 8.86185 27.3698 8.67898 27.3701C8.12986 27.3005 7.62138 27.0444 7.23872 26.6448C6.50995 25.8591 6.63381 24.8202 6.66262 24.518C6.83545 23.079 8.0107 22.2155 8.39092 21.9105C9.42653 21.1814 10.6705 20.8068 11.9368 20.8427C12.0895 20.8427 12.2249 20.8427 12.3747 20.8427C12.5245 20.8427 12.5677 20.8427 12.6627 20.86C12.7578 20.8773 12.8471 20.86 12.9306 20.8859L13.2647 20.9233L13.4059 20.9406L13.5442 20.9607L13.8322 21.0068L14.0915 21.0614H14.1145L14.3651 21.1219L14.6704 21.2053L14.8202 21.2485L14.9671 21.2974H14.9844C15.0631 21.3205 15.138 21.3464 15.2091 21.3752C15.2926 21.4039 15.3733 21.4356 15.4539 21.4701C16.7603 22.0075 17.9383 22.8147 18.9105 23.8388C19.0344 23.7179 19.1611 23.6028 19.2879 23.4905L19.4953 23.3149C19.5673 23.2545 19.6364 23.1998 19.7084 23.1451C20.6465 22.3842 21.7491 21.8521 22.9289 21.591L23.047 21.568L23.1651 21.5507L23.3984 21.5191H23.5366H23.6749C23.7642 21.5191 23.8564 21.5191 23.9457 21.5191C24.4996 21.5145 25.049 21.6202 25.5616 21.8299C26.1409 22.0736 26.6585 22.4433 27.0768 22.912Z" fill="white"/>
<path d="M14.3593 21.1449L14.1145 21.0845L14.2355 21.1133L14.3593 21.1449Z" fill="white"/>
<path d="M22.3441 10.2199V17.3776C21.6268 16.1055 20.9038 14.7413 20.2182 13.2792C19.8035 12.4158 19.4232 11.5524 19.066 10.7236H21.4453V10.2199H22.3441Z" fill="white"/>
<path d="M23.9083 3.55437C23.7167 3.55426 23.529 3.60887 23.3674 3.71177C23.2058 3.81467 23.077 3.96157 22.9962 4.13518C22.9153 4.30878 22.8859 4.50184 22.9112 4.69163C22.9365 4.88141 23.0156 5.06 23.1392 5.20636C23.1323 5.23056 23.1205 5.25308 23.1046 5.27256C22.6034 5.93451 22.1339 6.63675 21.3302 6.98499C21.1775 7.06636 21.008 7.11121 20.8351 7.11599C20.6621 7.12076 20.4904 7.08535 20.3334 7.01252C20.1765 6.9397 20.0386 6.83146 19.9307 6.69633C19.8227 6.5612 19.7477 6.40287 19.7114 6.23382C19.5972 5.85616 19.5447 5.46258 19.5558 5.06822C19.5818 4.66817 19.5558 4.2451 19.7488 3.88535C19.9682 3.81236 20.1557 3.66602 20.2798 3.47101C20.4038 3.27599 20.4567 3.04422 20.4296 2.81476C20.4026 2.5853 20.2971 2.37218 20.1311 2.21132C19.9651 2.05047 19.7487 1.95171 19.5183 1.93169C19.288 1.91167 19.0577 1.97163 18.8664 2.10144C18.6751 2.23126 18.5345 2.423 18.4682 2.64435C18.4019 2.8657 18.414 3.10312 18.5024 3.31659C18.5909 3.53007 18.7503 3.70654 18.9538 3.81627C18.9639 3.9316 18.944 4.04757 18.8962 4.153C18.7095 4.61373 18.4667 5.04968 18.1732 5.451C17.4819 6.4065 16.4161 6.33743 15.8688 5.30422C15.81 5.18725 15.7627 5.06484 15.7276 4.93871C15.5108 4.21124 15.3737 3.4624 15.3186 2.70535C15.2657 2.44465 15.2826 2.17461 15.3676 1.92253C15.5788 1.82973 15.7516 1.66717 15.857 1.46214C15.9625 1.2571 15.9941 1.02207 15.9467 0.796484C15.8992 0.570897 15.7755 0.368483 15.5964 0.223211C15.4173 0.0779387 15.1936 -0.0013504 14.9629 -0.0013504C14.7321 -0.0013504 14.5084 0.0779387 14.3293 0.223211C14.1502 0.368483 14.0265 0.570897 13.9791 0.796484C13.9316 1.02207 13.9633 1.2571 14.0687 1.46214C14.1741 1.66717 14.347 1.82973 14.5581 1.92253C14.6551 2.1175 14.6903 2.33737 14.659 2.55282C14.6577 3.40139 14.5355 4.24545 14.296 5.05958C14.1606 5.56324 13.9129 6.0266 13.3339 6.15324C12.7549 6.27987 12.3113 6.01797 11.9282 5.6208C11.6015 5.24606 11.3352 4.8227 11.139 4.36598C11.0396 4.19771 11.0107 3.99711 11.0583 3.80764C11.2296 3.65767 11.3448 3.45405 11.3851 3.23013C11.4254 3.0062 11.3885 2.77523 11.2803 2.57503C11.1721 2.37483 10.999 2.21727 10.7895 2.12813C10.58 2.039 10.3464 2.02358 10.127 2.0844C9.90755 2.14522 9.71528 2.27867 9.58166 2.4629C9.44804 2.64714 9.38098 2.87124 9.39147 3.09853C9.40195 3.32581 9.48935 3.5428 9.63937 3.71397C9.78938 3.88515 9.99312 4.00037 10.2172 4.04076C10.2543 4.0909 10.2816 4.14751 10.2979 4.20769C10.5548 5.00697 10.5366 5.86918 10.246 6.65689C10.173 6.84991 10.0404 7.01471 9.86747 7.1275C9.69453 7.24028 9.49017 7.2952 9.28393 7.2843C8.91555 7.27426 8.55973 7.14837 8.26711 6.92455C7.86436 6.63341 7.49786 6.29524 7.1754 5.91724C7.02739 5.77531 6.92 5.59647 6.86431 5.39919C6.98706 5.23226 7.05362 5.03072 7.05442 4.82359C7.05438 4.61516 6.98945 4.4119 6.86863 4.24199C6.74781 4.07208 6.57707 3.94394 6.3801 3.87532C6.18312 3.8067 5.96965 3.801 5.76929 3.85902C5.56893 3.91704 5.39159 4.03589 5.26186 4.19912C5.13213 4.36234 5.05644 4.56184 5.04527 4.76997C5.0341 4.9781 5.088 5.18454 5.19952 5.36069C5.31103 5.53684 5.47463 5.67396 5.66764 5.75306C5.86064 5.83215 6.07349 5.8493 6.27668 5.80212C6.3774 5.88203 6.45496 5.98734 6.50136 6.10719C7.00232 7.24332 7.39953 8.42235 7.68813 9.6299C7.70386 9.74334 7.76265 9.84638 7.85232 9.91771C7.90758 9.94248 7.96746 9.95529 8.02803 9.95529C8.0886 9.95529 8.14848 9.94248 8.20374 9.91771C8.68479 9.75078 12.9854 9.24712 14.9787 9.20971C16.972 9.17229 21.3475 9.56658 21.8919 9.74215C21.9534 9.77033 22.0202 9.78492 22.0878 9.78492C22.1554 9.78492 22.2222 9.77033 22.2837 9.74215C22.3296 9.70232 22.3667 9.65331 22.3925 9.59828C22.4183 9.54326 22.4322 9.48344 22.4335 9.42268C22.6121 8.18513 23.0672 7.02816 23.4906 5.85968C23.5304 5.73317 23.6077 5.62175 23.7124 5.54022C23.7825 5.55529 23.8539 5.56301 23.9256 5.56324C24.1929 5.56324 24.4494 5.45711 24.6385 5.26821C24.8275 5.0793 24.9337 4.82308 24.9337 4.55593C24.9337 4.28877 24.8275 4.03256 24.6385 3.84365C24.4494 3.65474 24.1929 3.54862 23.9256 3.54862L23.9083 3.55437Z" fill="white"/>
</g>
<defs>
<clipPath id="clip0_649_468">
<rect width="199" height="37" fill="white"/>
</clipPath>
</defs>
</svg>
