<svg width="552" height="631" viewBox="0 0 552 631" fill="none" xmlns="http://www.w3.org/2000/svg">
<path d="M208.533 405.292C208.043 405.292 207.552 405.292 206.571 405.292C204.117 405.292 202.155 405.292 199.701 405.292C183.509 443.074 167.317 479.874 152.597 510.786C160.448 515.693 168.789 519.618 178.112 522.562C179.584 523.053 180.565 523.544 182.037 524.034C183.509 524.525 184.491 524.525 185.963 525.016C187.435 525.506 188.416 525.506 189.888 525.997C190.869 525.997 191.36 526.488 192.341 526.488C205.099 491.159 221.291 448.962 236.992 409.708C229.141 407.255 219.819 405.292 208.533 405.292ZM208.533 405.292C208.043 405.292 207.552 405.292 206.571 405.292C204.117 405.292 202.155 405.292 199.701 405.292C183.509 443.074 167.317 479.874 152.597 510.786C160.448 515.693 168.789 519.618 178.112 522.562C179.584 523.053 180.565 523.544 182.037 524.034C183.509 524.525 184.491 524.525 185.963 525.016C187.435 525.506 188.416 525.506 189.888 525.997C190.869 525.997 191.36 526.488 192.341 526.488C205.099 491.159 221.291 448.962 236.992 409.708C229.141 407.255 219.819 405.292 208.533 405.292ZM208.533 405.292C208.043 405.292 207.552 405.292 206.571 405.292C204.117 405.292 202.155 405.292 199.701 405.292C183.509 443.074 167.317 479.874 152.597 510.786C160.448 515.693 168.789 519.618 178.112 522.562C179.584 523.053 180.565 523.544 182.037 524.034C183.509 524.525 184.491 524.525 185.963 525.016C187.435 525.506 188.416 525.506 189.888 525.997C190.869 525.997 191.36 526.488 192.341 526.488C205.099 491.159 221.291 448.962 236.992 409.708C229.141 407.255 219.819 405.292 208.533 405.292ZM208.533 405.292C208.043 405.292 207.552 405.292 206.571 405.292C204.117 405.292 202.155 405.292 199.701 405.292C183.509 443.074 167.317 479.874 152.597 510.786C160.448 515.693 168.789 519.618 178.112 522.562C179.584 523.053 180.565 523.544 182.037 524.034C183.509 524.525 184.491 524.525 185.963 525.016C187.435 525.506 188.416 525.506 189.888 525.997C190.869 525.997 191.36 526.488 192.341 526.488C205.099 491.159 221.291 448.962 236.992 409.708C229.141 407.255 219.819 405.292 208.533 405.292ZM208.533 405.292C208.043 405.292 207.552 405.292 206.571 405.292C204.117 405.292 202.155 405.292 199.701 405.292C183.509 443.074 167.317 479.874 152.597 510.786C160.448 515.693 168.789 519.618 178.112 522.562C179.584 523.053 180.565 523.544 182.037 524.034C183.509 524.525 184.491 524.525 185.963 525.016C187.435 525.506 188.416 525.506 189.888 525.997C190.869 525.997 191.36 526.488 192.341 526.488C205.099 491.159 221.291 448.962 236.992 409.708C229.141 407.255 219.819 405.292 208.533 405.292ZM208.533 405.292C208.043 405.292 207.552 405.292 206.571 405.292C204.117 405.292 202.155 405.292 199.701 405.292C183.509 443.074 167.317 479.874 152.597 510.786C160.448 515.693 168.789 519.618 178.112 522.562C179.584 523.053 180.565 523.544 182.037 524.034C183.509 524.525 184.491 524.525 185.963 525.016C187.435 525.506 188.416 525.506 189.888 525.997C190.869 525.997 191.36 526.488 192.341 526.488C205.099 491.159 221.291 448.962 236.992 409.708C229.141 407.255 219.819 405.292 208.533 405.292ZM208.533 405.292C208.043 405.292 207.552 405.292 206.571 405.292C204.117 405.292 202.155 405.292 199.701 405.292C183.509 443.074 167.317 479.874 152.597 510.786C160.448 515.693 168.789 519.618 178.112 522.562C179.584 523.053 180.565 523.544 182.037 524.034C183.509 524.525 184.491 524.525 185.963 525.016C187.435 525.506 188.416 525.506 189.888 525.997C190.869 525.997 191.36 526.488 192.341 526.488C205.099 491.159 221.291 448.962 236.992 409.708C229.141 407.255 219.819 405.292 208.533 405.292ZM543.659 608.429C533.845 608.429 517.163 605.485 503.915 587.821C495.083 575.554 455.339 491.159 414.613 401.858C390.571 411.18 370.453 430.316 361.621 439.639C359.168 441.602 358.187 444.546 358.187 446.999L409.707 565.741C409.707 565.741 416.085 578.498 412.651 588.802C409.707 599.106 378.795 609.901 378.795 609.901V630.509H551.509V607.448C552 607.448 548.565 608.429 543.659 608.429ZM208.533 405.292C208.043 405.292 207.552 405.292 206.571 405.292C204.117 405.292 202.155 405.292 199.701 405.292C183.509 443.074 167.317 479.874 152.597 510.786C160.448 515.693 168.789 519.618 178.112 522.562C179.584 523.053 180.565 523.544 182.037 524.034C183.509 524.525 184.491 524.525 185.963 525.016C187.435 525.506 188.416 525.506 189.888 525.997C190.869 525.997 191.36 526.488 192.341 526.488C205.099 491.159 221.291 448.962 236.992 409.708C229.141 407.255 219.819 405.292 208.533 405.292ZM208.533 405.292C208.043 405.292 207.552 405.292 206.571 405.292C204.117 405.292 202.155 405.292 199.701 405.292C183.509 443.074 167.317 479.874 152.597 510.786C160.448 515.693 168.789 519.618 178.112 522.562C179.584 523.053 180.565 523.544 182.037 524.034C183.509 524.525 184.491 524.525 185.963 525.016C187.435 525.506 188.416 525.506 189.888 525.997C190.869 525.997 191.36 526.488 192.341 526.488C205.099 491.159 221.291 448.962 236.992 409.708C229.141 407.255 219.819 405.292 208.533 405.292Z" fill="#6547DB"/>
<path d="M186.944 610.392V630.509H52.0107V610.392C52.0107 610.392 53.4827 610.883 56.4267 610.883C63.7867 610.883 80.9601 607.939 108.928 585.368C112.363 582.914 116.288 577.517 120.704 570.648C136.896 577.026 154.069 581.933 172.224 584.386C167.808 598.125 165.845 606.957 166.827 608.429C169.28 611.373 172.715 612.355 176.64 612.355C182.037 612.355 186.944 610.392 186.944 610.392Z" fill="#6547DB"/>
<path d="M394.496 359.169C394.005 359.169 393.515 359.169 393.024 359.169C392.533 359.169 391.552 359.169 391.061 359.66C390.571 359.66 389.589 360.151 389.099 360.151C369.963 364.076 350.336 373.399 332.181 387.138L287.04 283.116C287.04 283.116 274.773 313.537 258.091 355.244C257.109 354.753 256.128 354.753 255.147 354.263C254.165 353.772 253.184 353.772 252.203 353.281C251.221 352.791 250.24 352.791 249.259 352.3C248.277 351.809 247.296 351.809 246.315 351.809C245.824 351.809 244.843 351.319 244.352 351.319C241.899 350.828 239.445 350.337 236.992 349.847C235.52 349.356 233.557 349.356 232.085 348.865C231.104 348.865 230.613 348.375 229.632 348.375C228.651 348.375 228.16 348.375 227.179 347.884C226.197 347.884 225.216 347.393 223.744 347.393C243.861 298.327 262.507 251.713 275.264 220.31C275.755 218.838 276.245 217.366 276.736 216.385C277.227 214.913 277.717 213.441 278.208 211.969C283.605 198.23 287.531 187.926 289.493 182.529C290.475 179.585 290.965 178.603 290.965 178.603H312.555C312.555 178.603 313.045 180.075 314.517 182.529C318.933 192.833 331.2 220.31 347.883 256.62C349.845 260.545 351.317 264.47 353.28 268.886C355.243 273.302 357.206 278.209 359.659 282.625C370.944 306.668 382.72 332.673 394.496 359.169Z" fill="#6547DB"/>
<path d="M461.227 390.572C454.848 388.61 447.979 387.628 441.6 387.628C433.749 387.628 426.389 389.1 419.029 391.063C417.557 391.554 416.085 392.044 414.613 392.535C413.141 393.026 411.669 393.516 410.688 394.007C383.701 404.802 361.621 426.391 353.28 435.223C351.808 436.695 350.336 438.167 349.845 438.658C349.355 439.149 349.355 439.149 349.355 439.149V544.642C349.355 547.586 347.883 550.04 344.939 551.021C300.779 570.157 256.128 578.989 214.912 578.989C204.117 578.989 193.813 578.498 183.509 577.026C182.037 577.026 180.565 576.536 179.093 576.536C177.621 576.536 176.149 576.045 174.677 576.045C157.504 573.592 140.821 569.176 125.12 562.797C123.648 562.306 122.176 561.816 121.195 561.325C119.723 560.834 118.251 560.344 117.269 559.362C47.104 528.941 0 464.173 0 374.38C0 253.185 82.432 208.044 131.989 191.361C149.653 185.473 168.299 182.529 186.944 182.529H280.661C278.208 188.417 274.773 197.74 270.357 209.516C258.091 206.081 244.843 204.118 230.613 204.118C135.424 204.118 80.96 279.191 80.96 354.263C80.96 414.124 91.264 478.893 141.312 514.221C142.293 515.202 143.765 515.693 145.237 516.674C146.219 517.656 147.691 518.146 149.163 519.128C150.144 519.618 151.125 520.109 152.107 520.6C152.597 520.6 152.597 521.09 153.088 521.09C153.579 521.581 154.069 521.581 154.56 522.072C155.541 522.562 156.523 523.053 157.504 523.544C157.995 523.544 158.485 524.034 158.976 524.034C159.957 524.525 160.448 525.016 161.429 525.016C161.429 525.016 161.92 525.016 161.92 525.506C161.92 525.506 162.411 525.506 162.411 525.997C163.883 526.978 165.845 527.469 167.317 527.96C167.808 527.96 167.808 528.45 168.299 528.45C169.771 528.941 171.243 529.432 172.224 529.922C173.205 530.413 174.187 530.413 175.168 530.904H175.659C177.131 531.394 178.603 531.885 180.075 532.376C181.547 532.866 183.019 533.357 184 533.357C185.472 533.848 186.453 533.848 187.925 534.338C188.416 534.338 188.907 534.338 189.397 534.829C190.869 535.32 192.341 535.32 193.813 535.81C195.285 536.301 196.757 536.301 198.229 536.792C217.365 541.208 232.576 542.68 243.861 542.68C281.643 542.68 284.096 525.997 284.096 525.997C284.096 525.997 284.096 478.402 284.096 455.341C284.096 439.149 273.301 416.578 248.277 404.311C246.805 403.82 245.333 402.839 244.352 402.348C242.88 401.858 241.408 401.367 240.427 400.876C231.595 397.932 221.291 395.97 209.024 395.97C208.533 395.97 207.552 395.97 207.061 395.97C206.08 395.97 205.099 395.97 204.117 395.97C202.645 395.97 201.173 395.97 199.701 395.97H199.211C197.248 395.97 195.776 395.97 194.304 396.46C151.125 400.386 141.803 419.522 141.803 434.733C143.765 433.751 145.728 433.261 147.691 433.261H148.181C156.523 433.261 163.883 440.13 164.373 448.471C164.373 451.415 163.883 453.869 162.901 456.322C160.448 462.21 154.56 466.135 148.181 466.135C143.765 465.645 132.48 463.191 124.139 453.869C111.872 440.621 113.835 422.956 114.325 417.559C117.269 393.026 137.387 378.306 143.765 372.908C163.883 358.188 186.453 354.754 204.117 354.754C206.571 354.754 209.024 354.754 211.477 354.754C212.949 354.754 214.912 354.754 216.384 355.244C217.856 355.244 219.328 355.735 220.8 355.735C222.763 355.735 224.725 356.226 226.688 356.226C227.669 356.226 228.16 356.226 229.141 356.716C230.123 356.716 230.613 356.716 231.595 357.207C233.067 357.698 234.539 357.698 236.011 358.188C237.483 358.679 238.955 358.679 240.427 359.17C240.427 359.17 240.427 359.17 240.917 359.17C242.389 359.66 243.861 359.66 245.333 360.151C247.296 360.642 248.768 361.132 250.731 361.623C251.712 362.114 252.203 362.114 253.184 362.604C254.165 363.095 254.656 363.095 255.637 363.586C255.637 363.586 255.637 363.586 256.128 363.586C257.6 364.076 258.581 364.567 260.053 365.058C261.525 365.548 262.997 366.039 264.469 366.53C294.4 378.306 314.517 397.442 323.349 406.764C325.312 404.802 327.765 402.839 329.728 400.876C330.709 399.895 332.181 398.914 333.163 397.932C334.144 396.951 335.616 395.97 336.597 394.988C354.261 381.25 372.907 371.927 391.552 368.492C392.043 368.492 393.024 368.002 393.515 368.002C394.005 368.002 394.987 368.002 395.477 367.511C396.949 367.511 397.931 367.02 399.403 367.02C400.384 367.02 400.875 367.02 401.856 367.02C402.837 367.02 403.328 367.02 404.309 367.02C405.781 367.02 407.253 367.02 408.725 367.02C418.539 367.02 427.861 368.983 436.203 372.418C442.581 375.362 451.904 380.759 461.227 390.572Z" fill="#6547DB"/>
<path d="M244.352 360.641C242.88 360.151 241.408 360.151 239.936 359.66C240.427 359.66 241.408 360.151 241.899 360.151C242.88 360.151 243.861 360.151 244.352 360.641Z" fill="#6547DB"/>
<path d="M380.757 174.187V296.364C368.491 274.774 356.224 251.222 344.448 226.689C337.579 211.969 330.709 197.249 324.821 183.019H365.547V174.678H380.757V174.187Z" fill="#6547DB"/>
<path d="M407.253 60.8429C397.931 60.8429 390.08 68.6936 390.08 78.0163C390.08 82.4323 391.552 85.867 394.005 88.811C394.005 89.3017 393.515 89.7924 393.515 89.7924C385.173 101.078 376.832 112.854 363.093 118.742C350.827 124.139 339.051 118.742 335.616 105.984C333.653 99.6058 332.672 92.7364 333.163 85.867C333.653 78.9977 333.163 71.6376 336.597 65.7496C343.467 63.7869 348.373 57.4082 348.373 50.0482C348.373 40.7255 340.523 32.8748 331.2 32.8748C321.877 32.8748 314.027 40.7255 314.027 50.0482C314.027 56.4269 317.461 62.3149 322.859 65.2589C322.859 67.2216 322.859 68.6936 321.877 71.147C318.933 78.9977 314.517 86.3577 309.611 93.2271C297.835 109.419 279.68 108.438 270.357 90.7737C269.376 88.811 268.885 86.8484 267.904 84.395C263.979 72.1283 262.507 59.3709 261.035 46.1229C260.544 41.2162 260.053 36.8002 262.016 32.8748C267.904 30.4215 272.32 24.0428 272.32 17.1734C272.32 7.8507 264.469 0 255.147 0C245.824 0 237.973 7.8507 237.973 17.1734C237.973 24.0428 242.389 30.4215 248.277 32.8748C250.24 36.3095 250.24 40.2348 249.749 43.6695C249.749 59.3709 247.296 73.1096 243.371 86.3577C240.917 94.6991 236.992 103.04 227.179 105.003C217.365 106.966 209.515 102.55 203.136 96.1711C197.248 89.7924 193.323 82.4323 189.888 74.5816C187.925 71.147 187.435 68.203 188.416 65.2589C191.851 62.3149 194.304 57.4082 194.304 52.5016C194.304 43.1788 186.453 35.3281 177.131 35.3281C167.808 35.3281 159.957 43.1788 159.957 52.5016C159.957 60.8429 165.845 67.7123 174.187 69.1843C174.677 70.1656 175.168 71.147 175.659 72.1283C179.584 86.3577 180.565 100.096 174.677 113.835C171.733 121.195 165.845 124.139 158.485 124.63C152.107 124.63 146.219 122.177 141.312 118.251C134.443 113.344 128.555 107.456 122.667 101.078C120.213 98.1337 118.251 95.6804 117.269 92.2457C119.232 89.3017 120.704 85.867 120.704 82.4323C120.704 73.1096 112.853 65.2589 103.531 65.2589C94.2081 65.2589 86.3574 73.1096 86.3574 82.4323C86.3574 91.7551 94.2081 99.6058 103.531 99.6058C105.003 99.6058 105.984 99.6058 107.456 99.1151C108.928 100.096 110.4 102.059 111.381 104.512C120.213 123.649 126.592 144.257 131.499 164.374C131.989 166.827 132.971 168.79 134.443 169.281C136.896 170.753 139.84 169.281 140.331 169.281C148.672 166.337 221.781 157.995 255.637 157.505C289.984 157.014 364.075 163.393 373.397 166.827C374.379 167.318 377.813 168.299 380.267 166.827C381.739 165.846 382.229 164.374 382.72 161.43C385.664 140.331 393.515 120.705 400.875 100.587C401.856 98.1337 402.837 96.1711 404.8 95.1897C405.781 95.6804 407.253 95.6804 408.235 95.6804C417.557 95.6804 425.408 87.8297 425.408 78.507C424.427 68.203 416.576 60.8429 407.253 60.8429Z" fill="#6547DB"/>
</svg>
